<?xml version="1.0" encoding="UTF-8"?>
<svg id="Layer_2" data-name="Layer 2" xmlns="http://www.w3.org/2000/svg" viewBox="0 0 944.21 274.23">
  <defs>
    <style>
      .cls-1 {
        fill: #d3ffff;
      }

      .cls-1, .cls-2 {
        stroke-width: 0px;
      }

      .cls-2 {
        fill: #d9e021;
      }
    </style>
  </defs>
  <g id="Layer_1-2" data-name="Layer 1">
    <g>
      <g>
        <path class="cls-1" d="M166.36,256.6c-5.21.06-9.23-1.06-12.07-3.35-3.03-2.44-4.54-6.09-4.54-10.97,0-3.95,1.88-7.49,5.63-10.61,3.76-3.12,8.03-4.68,12.81-4.68,4.44,0,7.96,1.36,10.55,4.07,2.46,2.57,3.7,5.89,3.7,9.97,0,3.58-1.54,6.99-4.61,10.25-3.3,3.5-7.13,5.28-11.48,5.32ZM169.09,232.36c-4.15-.03-7.5.92-10.06,2.85-2.47,1.85-3.7,4.2-3.7,7.07,0,3.04.91,5.39,2.73,7.03,1.61,1.46,3.71,2.18,6.29,2.18,3.14,0,5.96-.99,8.46-2.96,2.7-2.13,4.04-4.77,4.04-7.92,0-2.51-.61-4.48-1.84-5.9-1.33-1.56-3.3-2.34-5.93-2.36ZM166.23,248.97c-2.24.04-4.18-.46-5.84-1.49-1.89-1.2-2.83-2.83-2.83-4.89,0-2.44,1.18-4.45,3.55-6.03,2.11-1.41,4.41-2.12,6.92-2.12s3.83.81,3.83,2.42c0,1.44-.68,2.16-2.03,2.16-.14,0-.36-.04-.64-.11-.28-.07-.49-.11-.64-.11-1.49,0-2.85.4-4.09,1.19-1.18.75-1.76,1.53-1.73,2.34.06,1.46,1.1,2.18,3.14,2.18.89,0,1.94-.38,3.13-1.15,1.19-.76,2.06-1.15,2.61-1.15,1.2,0,1.79.76,1.79,2.29,0,1.28-.79,2.36-2.36,3.22-1.43.79-3.03,1.2-4.8,1.23Z"/>
        <path class="cls-1" d="M201.27,256.6c-5.21.06-9.23-1.06-12.07-3.35-3.03-2.44-4.54-6.09-4.54-10.97,0-3.95,1.88-7.49,5.63-10.61,3.76-3.12,8.03-4.68,12.81-4.68,4.44,0,7.96,1.36,10.55,4.07,2.46,2.57,3.7,5.89,3.7,9.97,0,3.58-1.54,6.99-4.61,10.25-3.3,3.5-7.13,5.28-11.48,5.32ZM203.99,232.36c-4.15-.03-7.5.92-10.06,2.85-2.47,1.85-3.7,4.2-3.7,7.07,0,3.04.91,5.39,2.73,7.03,1.61,1.46,3.71,2.18,6.29,2.18,3.14,0,5.96-.99,8.46-2.96,2.7-2.13,4.04-4.77,4.04-7.92,0-2.51-.61-4.48-1.84-5.9-1.33-1.56-3.3-2.34-5.93-2.36ZM201.14,248.97c-2.24.04-4.18-.46-5.84-1.49-1.89-1.2-2.83-2.83-2.83-4.89,0-2.44,1.18-4.45,3.55-6.03,2.11-1.41,4.41-2.12,6.92-2.12s3.83.81,3.83,2.42c0,1.44-.68,2.16-2.03,2.16-.14,0-.36-.04-.64-.11-.28-.07-.49-.11-.64-.11-1.49,0-2.85.4-4.09,1.19-1.18.75-1.76,1.53-1.73,2.34.06,1.46,1.1,2.18,3.14,2.18.89,0,1.94-.38,3.13-1.15,1.19-.76,2.06-1.15,2.61-1.15,1.2,0,1.79.76,1.79,2.29,0,1.28-.79,2.36-2.36,3.22-1.43.79-3.03,1.2-4.8,1.23Z"/>
        <path class="cls-1" d="M236.17,256.6c-5.21.06-9.23-1.06-12.07-3.35-3.03-2.44-4.54-6.09-4.54-10.97,0-3.95,1.88-7.49,5.63-10.61,3.76-3.12,8.03-4.68,12.81-4.68,4.44,0,7.96,1.36,10.55,4.07,2.46,2.57,3.7,5.89,3.7,9.97,0,3.58-1.54,6.99-4.61,10.25-3.3,3.5-7.13,5.28-11.48,5.32ZM238.9,232.36c-4.15-.03-7.5.92-10.06,2.85-2.47,1.85-3.7,4.2-3.7,7.07,0,3.04.91,5.39,2.73,7.03,1.61,1.46,3.71,2.18,6.29,2.18,3.14,0,5.96-.99,8.46-2.96,2.7-2.13,4.04-4.77,4.04-7.92,0-2.51-.61-4.48-1.84-5.9-1.33-1.56-3.3-2.34-5.93-2.36ZM236.04,248.97c-2.24.04-4.18-.46-5.84-1.49-1.89-1.2-2.83-2.83-2.83-4.89,0-2.44,1.18-4.45,3.55-6.03,2.11-1.41,4.41-2.12,6.92-2.12s3.83.81,3.83,2.42c0,1.44-.68,2.16-2.03,2.16-.14,0-.36-.04-.64-.11-.28-.07-.49-.11-.64-.11-1.49,0-2.85.4-4.09,1.19-1.18.75-1.76,1.53-1.73,2.34.06,1.46,1.1,2.18,3.14,2.18.89,0,1.94-.38,3.13-1.15,1.19-.76,2.06-1.15,2.61-1.15,1.2,0,1.79.76,1.79,2.29,0,1.28-.79,2.36-2.36,3.22-1.43.79-3.03,1.2-4.8,1.23Z"/>
        <path class="cls-1" d="M270.56,240.29c.19-4.92.41-8.31.67-10.19.25-1.7,1.18-2.55,2.81-2.55.85,0,1.54.28,2.05.83.52.55.78,1.23.78,2.03,0,2.11-.16,5.26-.49,9.44-.33,4.18-.49,7.32-.49,9.43,0,5.16.17,8.61.5,10.35.04.23.06.44.06.63,0,.8-.29,1.46-.87,1.98-.58.52-1.25.78-2.01.78-1.07,0-1.86-.48-2.38-1.43-.98.59-2,.98-3.05,1.16-1.05.18-2.14.27-3.27.27-3.23,0-5.91-1.03-8.05-3.09-2.18-2.11-3.27-4.79-3.27-8.05,0-3.88,1.1-7.01,3.29-9.4,2.19-2.39,5.05-3.58,8.59-3.58,1.08,0,2.05.12,2.9.35s1.59.58,2.21,1.04ZM270.12,247.11c-.48-.91-1.1-1.59-1.86-2.03-.76-.45-1.67-.67-2.73-.67-2.13,0-3.73.62-4.8,1.85-1.07,1.23-1.6,3.08-1.6,5.55,0,1.56.58,2.89,1.73,4,1.15,1.11,2.49,1.67,4.02,1.67,1.11,0,1.95-.13,2.53-.39.39-.17,1.05-.63,1.99-1.38.25-.2.48-.42.71-.67-.03-.69-.03-3.33,0-7.92Z"/>
        <path class="cls-1" d="M289.38,263.3c-2.67,0-4.96-.92-6.88-2.75-2.11-2-3.21-4.68-3.31-8.02-.1-3.19.77-6.03,2.62-8.52,2.19-2.94,5.24-4.41,9.15-4.41,2.88,0,5.18,1.15,6.88,3.46,1.53,2.08,2.29,4.65,2.29,7.72,0,3.34-.89,6.2-2.68,8.56-2,2.64-4.69,3.96-8.07,3.96ZM290.68,245.31c-1.77-.01-3.17.79-4.2,2.42-.87,1.37-1.3,2.97-1.3,4.8,0,1.73.49,3.06,1.47,3.98.78.74,1.69,1.1,2.72,1.1,1.25,0,2.34-.42,3.27-1.28,1.05-.99,1.62-2.34,1.69-4.04.19-4.64-1.03-6.97-3.66-6.99Z"/>
        <path class="cls-1" d="M320.79,263.56c-1.77,0-2.76-.87-2.96-2.62-.2-1.49-.4-2.98-.61-4.48-.22-1.59-.32-3.08-.32-4.48,0-.38.03-1.02.08-1.92.05-.91.08-1.55.08-1.92,0-.1.01-.36.04-.77.03-.41.04-.75.04-1.01,0-1.2-.29-1.79-.87-1.79-1.24,0-2.45.79-3.63,2.38s-2.12,3.6-2.79,6.04c-.03.49-.09,1.14-.18,1.95-.08.67-.12,1.32-.12,1.95,0,.41-.05,1.04-.14,1.87-.09.83-.14,1.46-.14,1.87,0,.84-.28,1.54-.85,2.09-.57.55-1.29.83-2.15.83s-1.58-.28-2.14-.83c-.56-.55-.84-1.24-.84-2.08,0-.41-.04-1.03-.13-1.86-.09-.83-.13-1.45-.13-1.86,0-1.41.1-3.37.3-5.88s.3-4.47.3-5.88c0-.44-.03-1.1-.08-1.97-.05-.87-.08-1.52-.08-1.95,0-.82.29-1.5.88-2.04s1.3-.8,2.15-.8c1.89,0,2.9,1.13,3.03,3.4l.02.24c2.11-2.12,4.33-3.18,6.66-3.18,2.73,0,4.61,1.14,5.65,3.42.69,1.53,1.04,3.81,1.04,6.86v1.54c-.01.66-.02,1.13-.02,1.41,0,1.12.16,2.57.47,4.35.31,1.77.46,3.22.46,4.33,0,.81-.29,1.48-.87,2.01-.58.53-1.29.8-2.14.8Z"/>
        <path class="cls-1" d="M347.34,249.14c-.61,3.39-.97,6.96-1.08,10.73-.14,4.66-.92,8.04-2.33,10.14-1.89,2.81-5.23,4.22-10.04,4.22-5.61,0-8.41-1.11-8.41-3.33,0-.79.25-1.43.76-1.92.5-.49,1.17-.74,1.99-.74.65,0,1.58.12,2.79.37,1.21.24,2.29.37,3.22.37,2.15,0,3.73-.66,4.76-1.97.98-1.28,1.56-3.32,1.73-6.12-.74.75-1.56,1.31-2.49,1.69-.92.37-1.93.56-3.03.56-2.87,0-5.2-.93-7-2.8-1.79-1.87-2.69-4.26-2.69-7.17,0-3.92,1.2-7.09,3.59-9.52,2.48-2.51,5.83-3.76,10.06-3.76,1.36,0,2.52.17,3.5.5.98.33,1.77.84,2.38,1.51,1.83.22,2.75,1.3,2.75,3.24,0,.97-.15,2.3-.45,4ZM338.95,244.81c-2.44,0-4.33.8-5.69,2.4-1.21,1.46-1.82,3.34-1.82,5.67,0,1.72.32,3.01.97,3.87.65.87,1.62,1.3,2.92,1.3,1.18,0,2.37-.68,3.57-2.05,1.12-1.3,1.77-2.58,1.92-3.85.27-1.38.59-3.54.95-6.47-.49-.29-.97-.5-1.45-.65s-.94-.22-1.38-.22Z"/>
        <path class="cls-1" d="M361.9,263.02c-3.45,0-6.26-.82-8.46-2.47-2.42-1.82-3.63-4.38-3.63-7.68,0-3.65.96-6.73,2.88-9.26,2.13-2.8,5.01-4.2,8.63-4.2,2.51,0,4.59.4,6.25,1.21,2.18,1.07,3.27,2.73,3.27,4.97,0,1.59-.89,2.99-2.66,4.22-.81.56-2.43,1.38-4.87,2.47l-7.29,3.22c.69.75,1.53,1.31,2.51,1.69.98.38,2.1.56,3.37.56,1.93,0,3.57-.4,4.91-1.19,1.2-.71,2.16-1.06,2.88-1.06,1.5,0,2.25.73,2.25,2.18,0,1.64-1.2,2.98-3.61,4.02-2.02.87-4.16,1.3-6.42,1.3ZM361.31,244.66c-1.34,0-2.49.45-3.44,1.34-.95.89-1.72,2.24-2.29,4.02,1.63-.71,3.25-1.41,4.87-2.1,1.95-.88,3.5-1.69,4.65-2.44-.97-.55-2.23-.82-3.78-.82Z"/>
        <path class="cls-1" d="M393.52,246.43c-.13,2.21-1.13,3.31-3.01,3.31s-2.72-.94-2.72-2.81l-.11-2.18c-3.24.52-5.57,2.18-6.96,5l.02,10.88c0,.82-.28,1.5-.84,2.04-.56.54-1.28.81-2.14.81s-1.59-.29-2.08-.87c-.46-.52-.69-1.18-.69-1.99v-14.17c0-.45.01-1.11.04-2,.03-.89.04-1.55.04-2,0-.81.24-1.48.72-2.02.48-.54,1.17-.81,2.07-.81,1.6,0,2.55.82,2.85,2.47,2.55-1.9,5.38-2.85,8.5-2.85,2.88,0,4.33,1.92,4.33,5.75,0,.74,0,1.22-.02,1.45Z"/>
        <path class="cls-1" d="M436.21,261.21c-1.7.75-4.33,1.42-7.89,2.01-3.26.55-5.93.82-8.02.82-3.53,0-5.3-1.55-5.3-4.65,0,.25.14-2.04.43-6.86.38-6.26.56-13.22.56-20.89,0-.82.28-1.52.85-2.1.57-.58,1.29-.87,2.15-.87s1.59.29,2.16.87c.58.58.87,1.28.87,2.1,0,7.69-.2,14.76-.58,21.24-.13,1.15-.27,2.92-.41,5.3,3.42-.06,7.8-.89,13.15-2.51.33-.1.65-.15.95-.15.91,0,1.64.33,2.21,1,.5.59.76,1.25.76,1.99,0,1.24-.63,2.14-1.88,2.7Z"/>
        <path class="cls-1" d="M460.95,261.21c-1.7.75-4.33,1.42-7.89,2.01-3.26.55-5.93.82-8.02.82-3.53,0-5.3-1.55-5.3-4.65,0,.25.14-2.04.43-6.86.38-6.26.56-13.22.56-20.89,0-.82.28-1.52.85-2.1.57-.58,1.29-.87,2.15-.87s1.59.29,2.16.87c.58.58.87,1.28.87,2.1,0,7.69-.2,14.76-.58,21.24-.13,1.15-.27,2.92-.41,5.3,3.42-.06,7.8-.89,13.15-2.51.33-.1.65-.15.95-.15.91,0,1.64.33,2.21,1,.5.59.76,1.25.76,1.99,0,1.24-.63,2.14-1.88,2.7Z"/>
        <path class="cls-1" d="M486.3,238.99c-1.3,0-2.26-.68-2.88-2.05-.29-.65-.58-1.04-.87-1.17-.22-.1-.79-.15-1.71-.15-1.82,0-3.92,1.41-6.29,4.24-3.33,3.95-5,7.65-5,11.09,0,1.57.53,2.92,1.58,4.04,1.05,1.12,2.31,1.69,3.79,1.69s2.88-.38,4.35-1.12c.52-.27,1.61-.98,3.29-2.12,1.12-.75,1.98-1.12,2.55-1.12.87,0,1.6.32,2.21.95.56.59.84,1.27.84,2.03,0,.85-.38,1.59-1.12,2.23-3.97,3.34-8,5.02-12.11,5.02-3.24,0-5.98-1.18-8.22-3.55-2.13-2.28-3.2-4.96-3.2-8.04,0-4.83,2.11-9.76,6.34-14.79,3.59-4.27,7.26-6.4,11.01-6.4.63,0,1.21.02,1.72.07s.96.11,1.35.19c.63-.62,1.4-.93,2.29-.93,1.47,0,2.38.84,2.73,2.53.24,1.21.37,2.62.37,4.24,0,.72-.21,1.38-.63,1.97-.55.78-1.34,1.17-2.38,1.17Z"/>
        <path class="cls-1" d="M496.53,264.28c-.97,0-1.8-.3-2.51-.9-.71-.6-1.06-1.27-1.06-2.02s.35-1.45,1.06-2.07c.71-.61,1.54-.92,2.51-.92,1.02,0,1.87.29,2.53.87.66.58.99,1.28.99,2.12,0,.76-.35,1.44-1.04,2.03-.69.59-1.52.89-2.49.89Z"/>
        <path class="cls-1" d="M516.05,232.05c-1.34.12-3.33.19-5.97.24-.01.66.04,1.62.15,2.88.12,1.33.17,2.29.17,2.9,0,.39.1.96.29,1.71.19.75.29,1.32.29,1.71,0,.63-.26,1.16-.78,1.58-.52.42-1.11.63-1.77.63-1.01,0-1.74-.36-2.18-1.08-.35-.53-.55-1.32-.61-2.36-.03-.81-.05-1.61-.07-2.4-.14-1.24-.29-3.08-.45-5.54-.35-.01-1.08-.07-2.21-.15-.92-.07-1.67-.11-2.23-.11-.71,0-1.3-.22-1.77-.65s-.71-.97-.71-1.6.24-1.17.71-1.6,1.07-.65,1.77-.65c.52,0,1.3.05,2.35.14,1.04.09,1.83.14,2.35.14,2.32,0,4.65-.04,6.99-.13.2-.01.77-.04,1.71-.09.71-.04,1.28-.06,1.71-.06,1.05,0,1.81.38,2.27,1.12.46-.78,1.17-1.17,2.12-1.17,2.18,0,3.69,2.28,4.54,6.83,1.57-4.74,3.11-7.12,4.63-7.12,1.24,0,2.03.59,2.38,1.77.33,1,.81,2.5,1.43,4.52.33,1.15.67,2.31,1.02,3.48.42,1.28.91,2.39,1.47,3.33.25.4.37.79.37,1.17,0,.63-.26,1.16-.78,1.59-.52.42-1.11.64-1.77.64-1.74,0-3.2-2.44-4.37-7.31-1.93,4.64-3.73,6.96-5.41,6.96-1.08,0-1.84-.61-2.27-1.84-.29-.88-.62-2.42-1-4.61-1.56,4.21-3.17,6.32-4.84,6.32-.66,0-1.25-.22-1.76-.67-.51-.45-.77-.98-.77-1.6,0-.45.19-.91.56-1.38.78-1,1.45-2.23,2.01-3.72.14-.4.56-1.74,1.25-4.02-.29.12-.56.18-.82.19Z"/>
        <path class="cls-1" d="M564.69,251.88c0,.82.02,2.14.08,3.96s.08,3.14.08,3.96-.28,1.52-.84,2.07-1.28.81-2.14.81-1.58-.27-2.14-.81-.84-1.23-.84-2.07-.03-2.14-.08-3.96c-.05-1.82-.08-3.14-.08-3.96,0-1.28.07-2.89.22-4.82.14-1.93.22-3.54.22-4.82,0-.84.28-1.52.84-2.07s1.28-.81,2.14-.81,1.58.27,2.14.81.84,1.23.84,2.07c0,1.28-.07,2.89-.22,4.82-.14,1.93-.22,3.54-.22,4.82ZM562.85,236.03c-.92,0-1.72-.31-2.4-.93s-1.02-1.38-1.02-2.27.34-1.65,1.02-2.27,1.48-.93,2.4-.93,1.72.31,2.39.93c.67.62,1,1.38,1,2.27s-.33,1.65-1,2.27c-.67.62-1.47.93-2.39.93Z"/>
        <path class="cls-1" d="M584.54,246.2c-1.43,0-2.29-.6-2.57-1.79-.58-.1-1.17-.15-1.77-.15-3.48,0-5.21.48-5.21,1.43,0,.56,1.05,1.32,3.14,2.27,2.85,1.31,4.79,2.33,5.8,3.07,2.09,1.51,3.14,3.22,3.14,5.13,0,2.48-1.15,4.36-3.46,5.64-1.86,1.02-4.15,1.54-6.86,1.54-1.92,0-3.67-.3-5.25-.89-2.16-.81-3.24-2-3.24-3.57,0-1.44.86-2.16,2.57-2.16.66,0,1.62.21,2.88.63,1.25.42,2.22.63,2.9.63,2.93,0,4.4-.59,4.41-1.77,0-.74-1.02-1.55-3.05-2.44-2.97-1.31-4.87-2.26-5.71-2.83-2.03-1.43-3.05-3.17-3.05-5.21,0-2.9,1.54-4.85,4.61-5.86,1.8-.59,4.54-.89,8.22-.89,1.44,0,2.51.19,3.2.56.95.5,1.43,1.43,1.43,2.79,0,2.6-.7,3.89-2.1,3.89Z"/>
        <path class="cls-1" d="M616.74,258.85c0,2.74-1,4.11-2.98,4.11-.87,0-1.58-.27-2.14-.82-.56-.55-.84-1.25-.84-2.12v-29.91c0-.84.3-1.52.91-2.05.58-.49,1.29-.74,2.14-.74s1.55.26,2.1.77.82,1.19.82,2.02v28.74Z"/>
        <path class="cls-1" d="M630.5,263.3c-2.67,0-4.96-.92-6.88-2.75-2.11-2-3.21-4.68-3.31-8.02-.1-3.19.77-6.03,2.62-8.52,2.19-2.94,5.24-4.41,9.15-4.41,2.88,0,5.18,1.15,6.88,3.46,1.53,2.08,2.29,4.65,2.29,7.72,0,3.34-.89,6.2-2.68,8.56-2,2.64-4.69,3.96-8.07,3.96ZM631.8,245.31c-1.77-.01-3.17.79-4.2,2.42-.87,1.37-1.3,2.97-1.3,4.8,0,1.73.49,3.06,1.47,3.98.78.74,1.69,1.1,2.72,1.1,1.25,0,2.34-.42,3.27-1.28,1.05-.99,1.62-2.34,1.69-4.04.19-4.64-1.03-6.97-3.66-6.99Z"/>
        <path class="cls-1" d="M663.19,263.22c-.66,0-1.72-.64-3.16-1.92-1.33.63-2.49,1.11-3.5,1.44-1.01.32-1.87.49-2.57.49-3.48,0-6.08-.93-7.82-2.79-1.74-1.86-2.61-4.64-2.61-8.35,0-3.47,1.28-6.45,3.85-8.92,2.57-2.47,5.64-3.71,9.21-3.71,1.37,0,2.96.39,4.76,1.16,2.18.93,3.27,2.01,3.27,3.23,0,.51-.17.96-.5,1.35-.14.57-.26,1.29-.34,2.15-.08.86-.12,1.87-.12,3.03,0,2.73.19,4.69.58,5.89.04.13.37.87.99,2.23.56,1.23.84,1.93.84,2.1,0,.76-.29,1.38-.88,1.88-.58.5-1.26.75-2.02.75ZM657.83,248.62c0-.46.03-.99.1-1.59.06-.6.16-1.26.29-2-.29-.14-.54-.25-.77-.31-.22-.07-.41-.1-.57-.1-1.96,0-3.68.77-5.15,2.3-1.47,1.54-2.21,3.31-2.21,5.33s.35,3.38,1.04,4.36c.69.97,1.73,1.46,3.11,1.46.89,0,1.74-.15,2.54-.44.8-.29,1.55-.73,2.26-1.31-.43-3.43-.65-6-.65-7.7Z"/>
        <path class="cls-1" d="M684.55,240.29c.19-4.92.41-8.31.67-10.19.25-1.7,1.18-2.55,2.81-2.55.85,0,1.54.28,2.05.83.52.55.78,1.23.78,2.03,0,2.11-.16,5.26-.49,9.44-.33,4.18-.49,7.32-.49,9.43,0,5.16.17,8.61.5,10.35.04.23.06.44.06.63,0,.8-.29,1.46-.87,1.98-.58.52-1.25.78-2.01.78-1.07,0-1.86-.48-2.38-1.43-.98.59-2,.98-3.05,1.16-1.05.18-2.14.27-3.27.27-3.23,0-5.91-1.03-8.05-3.09-2.18-2.11-3.27-4.79-3.27-8.05,0-3.88,1.1-7.01,3.29-9.4,2.19-2.39,5.05-3.58,8.59-3.58,1.08,0,2.05.12,2.9.35s1.59.58,2.21,1.04ZM684.12,247.11c-.48-.91-1.1-1.59-1.86-2.03-.76-.45-1.67-.67-2.73-.67-2.13,0-3.73.62-4.8,1.85-1.07,1.23-1.6,3.08-1.6,5.55,0,1.56.58,2.89,1.73,4,1.15,1.11,2.49,1.67,4.02,1.67,1.11,0,1.95-.13,2.53-.39.39-.17,1.05-.63,1.99-1.38.25-.2.48-.42.71-.67-.03-.69-.03-3.33,0-7.92Z"/>
        <path class="cls-1" d="M700.8,251.88c0,.82.02,2.14.08,3.96s.08,3.14.08,3.96-.28,1.52-.84,2.07-1.28.81-2.14.81-1.58-.27-2.14-.81-.84-1.23-.84-2.07-.03-2.14-.08-3.96c-.05-1.82-.08-3.14-.08-3.96,0-1.28.07-2.89.22-4.82.14-1.93.22-3.54.22-4.82,0-.84.28-1.52.84-2.07s1.28-.81,2.14-.81,1.58.27,2.14.81.84,1.23.84,2.07c0,1.28-.07,2.89-.22,4.82-.14,1.93-.22,3.54-.22,4.82ZM698.96,236.03c-.92,0-1.72-.31-2.4-.93s-1.02-1.38-1.02-2.27.34-1.65,1.02-2.27,1.48-.93,2.4-.93,1.72.31,2.39.93c.67.62,1,1.38,1,2.27s-.33,1.65-1,2.27c-.67.62-1.47.93-2.39.93Z"/>
        <path class="cls-1" d="M723.05,263.56c-1.77,0-2.76-.87-2.96-2.62-.2-1.49-.4-2.98-.61-4.48-.22-1.59-.32-3.08-.32-4.48,0-.38.03-1.02.08-1.92.05-.91.08-1.55.08-1.92,0-.1.01-.36.04-.77.03-.41.04-.75.04-1.01,0-1.2-.29-1.79-.87-1.79-1.24,0-2.45.79-3.63,2.38s-2.12,3.6-2.79,6.04c-.03.49-.09,1.14-.18,1.95-.08.67-.12,1.32-.12,1.95,0,.41-.05,1.04-.14,1.87-.09.83-.14,1.46-.14,1.87,0,.84-.28,1.54-.85,2.09-.57.55-1.29.83-2.15.83s-1.58-.28-2.14-.83c-.56-.55-.84-1.24-.84-2.08,0-.41-.04-1.03-.13-1.86-.09-.83-.13-1.45-.13-1.86,0-1.41.1-3.37.3-5.88s.3-4.47.3-5.88c0-.44-.03-1.1-.08-1.97-.05-.87-.08-1.52-.08-1.95,0-.82.29-1.5.88-2.04s1.3-.8,2.15-.8c1.89,0,2.9,1.13,3.03,3.4l.02.24c2.11-2.12,4.33-3.18,6.66-3.18,2.73,0,4.61,1.14,5.65,3.42.69,1.53,1.04,3.81,1.04,6.86v1.54c-.01.66-.02,1.13-.02,1.41,0,1.12.16,2.57.47,4.35.31,1.77.46,3.22.46,4.33,0,.81-.29,1.48-.87,2.01-.58.53-1.29.8-2.14.8Z"/>
        <path class="cls-1" d="M749.6,249.14c-.61,3.39-.97,6.96-1.08,10.73-.14,4.66-.92,8.04-2.33,10.14-1.89,2.81-5.23,4.22-10.04,4.22-5.61,0-8.41-1.11-8.41-3.33,0-.79.25-1.43.76-1.92.5-.49,1.17-.74,1.99-.74.65,0,1.58.12,2.79.37,1.21.24,2.29.37,3.22.37,2.15,0,3.73-.66,4.76-1.97.98-1.28,1.56-3.32,1.73-6.12-.74.75-1.56,1.31-2.49,1.69-.92.37-1.93.56-3.03.56-2.87,0-5.2-.93-7-2.8-1.79-1.87-2.69-4.26-2.69-7.17,0-3.92,1.2-7.09,3.59-9.52,2.48-2.51,5.83-3.76,10.06-3.76,1.36,0,2.52.17,3.5.5.98.33,1.77.84,2.38,1.51,1.83.22,2.75,1.3,2.75,3.24,0,.97-.15,2.3-.45,4ZM741.21,244.81c-2.44,0-4.33.8-5.69,2.4-1.21,1.46-1.82,3.34-1.82,5.67,0,1.72.32,3.01.97,3.87.65.87,1.62,1.3,2.92,1.3,1.18,0,2.37-.68,3.57-2.05,1.12-1.3,1.77-2.58,1.92-3.85.27-1.38.59-3.54.95-6.47-.49-.29-.97-.5-1.45-.65s-.94-.22-1.38-.22Z"/>
        <path class="cls-1" d="M757.97,264.28c-.97,0-1.8-.3-2.51-.9-.71-.6-1.06-1.27-1.06-2.02s.35-1.45,1.06-2.07c.71-.61,1.54-.92,2.51-.92,1.02,0,1.87.29,2.53.87.66.58.99,1.28.99,2.12,0,.76-.35,1.44-1.04,2.03-.69.59-1.52.89-2.49.89Z"/>
        <path class="cls-1" d="M771.92,264.28c-.97,0-1.8-.3-2.51-.9-.71-.6-1.06-1.27-1.06-2.02s.35-1.45,1.06-2.07c.71-.61,1.54-.92,2.51-.92,1.02,0,1.87.29,2.53.87.66.58.99,1.28.99,2.12,0,.76-.35,1.44-1.04,2.03-.69.59-1.52.89-2.49.89Z"/>
        <path class="cls-1" d="M785.87,264.28c-.97,0-1.8-.3-2.51-.9-.71-.6-1.06-1.27-1.06-2.02s.35-1.45,1.06-2.07c.71-.61,1.54-.92,2.51-.92,1.02,0,1.87.29,2.53.87.66.58.99,1.28.99,2.12,0,.76-.35,1.44-1.04,2.03-.69.59-1.52.89-2.49.89Z"/>
      </g>
      <g>
        <path class="cls-2" d="M936.61,156.87c-45.49-4.88-84.03-12.8-111.44-22.92-24.05-8.87-38.41-19.28-38.41-27.84v-28.57c0-15.79-14.3-29.78-42.51-41.58-25.15-10.52-61.09-19.12-103.93-24.88C571.05,1.77,497.02-1.77,426.25.83c-65.62,2.41-125.33,9.85-172.67,21.51-43.85,10.82-96.12,30.29-96.12,61.61v22.16c0,8.56-14.36,18.96-38.41,27.84-27.42,10.11-65.95,18.04-111.44,22.92l-7.59.81v33.95h944.21v-33.95l-7.59-.81ZM927.21,174.63H17v-1.71c43.59-5.08,80.77-13.01,107.92-23.02,32.87-12.12,49.53-26.86,49.53-43.79v-22.16c0-11.89,21.86-29.98,83.19-45.11,99.02-24.39,248.34-28.67,380.41-10.91,41.39,5.57,75.84,13.77,99.64,23.72,20.08,8.4,32.07,18.08,32.07,25.9v28.57c0,16.93,16.66,31.66,49.53,43.79,27.15,10.01,64.33,17.94,107.92,23.02v1.71Z"/>
        <path class="cls-2" d="M405.75,114.46v-1.74c0-17.54-13.53-26.3-40.59-26.3h-7.49c-6.33,0-11.93.53-16.82,1.6-4.88,1.06-8.8,2.45-11.75,4.16s-5.36,3.76-7.22,6.14c-1.86,2.39-3.15,4.74-3.85,7.06-.7,2.32-1.05,4.77-1.05,7.35v1.74c0,2.58.35,5.04,1.05,7.4.7,2.35,2,4.75,3.9,7.2,1.9,2.45,4.32,4.54,7.27,6.29,2.95,1.74,6.87,3.17,11.76,4.3s10.49,1.69,16.82,1.69h7.38c27.06,0,40.59-8.96,40.59-26.88ZM345.76,123.36c-3.16-2.64-4.75-5.8-4.75-9.48v-.48c0-3.8,1.56-6.95,4.69-9.43s8.38-3.72,15.76-3.72h.11c7.24,0,12.44,1.26,15.6,3.77,3.16,2.51,4.74,5.64,4.74,9.38v.48c0,3.68-1.58,6.83-4.74,9.48s-8.4,3.96-15.71,3.96-12.54-1.32-15.71-3.96Z"/>
        <path class="cls-2" d="M436.2,115.75c0-4.29,1.47-7.74,4.41-10.35,2.94-2.6,6.86-3.9,11.76-3.9,1.97,0,132.33.2,133.89.6,2.16.55,3.93,1.49,5.3,2.82,2.35,2.28,3.53,5.5,3.53,9.66v25.97h22.06v-33.19c0-5.66-2.14-10.49-6.42-14.49-4.28-4-10.7-6-19.26-6h-.69c-1.49,0-2.94.07-4.35.2-1.98.19-132.48.5-134.32.94-6.22,1.51-11.59,4.51-16.1,9.01v-8.98h-21.67v52.52h21.86v-24.79Z"/>
        <path class="cls-2" d="M690.49,96.48c-6.23-5.75-15.81-8.64-28.75-8.64h-2.16c-11.42,0-19.81,2.42-25.14,7.22-5.35,4.83-8.01,10.89-8.01,18.23v2.04c0,7.67,2.95,13.95,8.87,18.83,5.92,4.9,14.98,7.34,27.16,7.34h1.24c11.7,0,20.69-2.75,26.92-8.24,0,9.73-5.66,14.97-16.96,15.68h-309.85v14.87h310.87c6.45,0,12.11-.73,17-2.2,4.9-1.47,8.68-3.24,11.34-5.4,2.66-2.13,4.85-4.64,6.52-7.53,1.69-2.89,2.76-5.47,3.24-7.79.48-2.3.74-4.62.74-6.91v-44.8h-23.02v7.32ZM690.08,114.92c0,3.46-1.78,6.42-5.35,8.9-3.54,2.46-8.73,3.72-15.5,3.72h-.62c-6.49,0-11.27-1.25-14.32-3.72-3.04-2.49-4.57-5.49-4.57-9.02v-.5c0-3.53,1.45-6.46,4.35-8.76,2.92-2.3,7.75-3.46,14.53-3.46h.62c6.78,0,11.96,1.18,15.5,3.55,3.57,2.39,5.35,5.33,5.35,8.86v.43Z"/>
      </g>
    </g>
  </g>
</svg>