<?xml version="1.0" encoding="UTF-8"?>
<svg id="Layer_2" data-name="Layer 2" xmlns="http://www.w3.org/2000/svg" viewBox="0 0 373.66 67.33">
  <defs>
    <style>
      .cls-1 {
        fill: #f0f;
        stroke-width: 0px;
      }
    </style>
  </defs>
  <g id="Layer_1-2" data-name="Layer 1">
    <g>
      <g>
        <path class="cls-1" d="M17.58,0c4.17,0,7.47,1.34,9.91,4.02,2.32,2.55,3.48,5.88,3.48,9.97,0,3.58-1.46,7-4.37,10.27-3.14,3.52-6.76,5.3-10.86,5.34-10.5.12-15.75-4.64-15.75-14.27,0-3.92,1.79-7.46,5.36-10.61C8.94,1.58,13.01,0,17.58,0ZM18.49,3.94c-4.34-.03-7.88,1.04-10.62,3.2-2.68,2.13-4.02,4.87-4.02,8.2,0,3.82,1.06,6.56,3.18,8.22,1.89,1.5,4.79,2.24,8.72,2.21,3.19-.01,5.94-1.46,8.26-4.35,2.06-2.55,3.09-5.17,3.09-7.85,0-2.86-.67-5.12-2.01-6.79-1.5-1.88-3.7-2.82-6.6-2.83ZM17.37,10.4c-1.64,0-3.11.4-4.41,1.19-1.34.84-2.01,1.85-2.01,3.03,0,.82.47,1.51,1.41,2.08.82.49,1.67.74,2.55.74,1.07,0,2.16-.44,3.28-1.33s1.83-1.33,2.13-1.33c.53,0,.99.21,1.38.62s.58.88.58,1.39c0,1.01-.82,2-2.46,2.99-1.64.98-3.28,1.48-4.92,1.51-1.96.04-3.73-.55-5.3-1.79-1.67-1.31-2.51-2.93-2.51-4.87,0-2.26,1.15-4.21,3.44-5.84,2.1-1.5,4.33-2.25,6.68-2.25.81,0,1.51.2,2.1.61.68.46,1.02,1.07,1.02,1.84,0,1.11-.56,1.67-1.69,1.67-.16,0-.38-.04-.65-.12-.27-.08-.48-.12-.63-.12Z"/>
        <path class="cls-1" d="M52.42,0c4.17,0,7.47,1.34,9.91,4.02,2.32,2.55,3.48,5.88,3.48,9.97,0,3.58-1.46,7-4.37,10.27-3.14,3.52-6.76,5.3-10.86,5.34-10.5.12-15.75-4.64-15.75-14.27,0-3.92,1.79-7.46,5.36-10.61,3.58-3.15,7.65-4.73,12.22-4.73ZM53.33,3.94c-4.34-.03-7.88,1.04-10.62,3.2-2.68,2.13-4.02,4.87-4.02,8.2,0,3.82,1.06,6.56,3.18,8.22,1.89,1.5,4.79,2.24,8.72,2.21,3.19-.01,5.94-1.46,8.26-4.35,2.06-2.55,3.09-5.17,3.09-7.85,0-2.86-.67-5.12-2.01-6.79-1.5-1.88-3.7-2.82-6.6-2.83ZM52.21,10.4c-1.64,0-3.11.4-4.41,1.19-1.34.84-2.01,1.85-2.01,3.03,0,.82.47,1.51,1.41,2.08.82.49,1.67.74,2.55.74,1.07,0,2.16-.44,3.28-1.33s1.83-1.33,2.13-1.33c.53,0,.99.21,1.38.62s.58.88.58,1.39c0,1.01-.82,2-2.46,2.99-1.64.98-3.28,1.48-4.92,1.51-1.96.04-3.73-.55-5.3-1.79-1.67-1.31-2.51-2.93-2.51-4.87,0-2.26,1.15-4.21,3.44-5.84,2.1-1.5,4.33-2.25,6.68-2.25.81,0,1.51.2,2.1.61.68.46,1.02,1.07,1.02,1.84,0,1.11-.56,1.67-1.69,1.67-.16,0-.38-.04-.65-.12-.27-.08-.48-.12-.63-.12Z"/>
        <path class="cls-1" d="M87.27,0c4.17,0,7.47,1.34,9.91,4.02,2.32,2.55,3.48,5.88,3.48,9.97,0,3.58-1.46,7-4.37,10.27-3.14,3.52-6.76,5.3-10.86,5.34-10.5.12-15.75-4.64-15.75-14.27,0-3.92,1.79-7.46,5.36-10.61,3.58-3.15,7.65-4.73,12.22-4.73ZM88.17,3.94c-4.34-.03-7.88,1.04-10.62,3.2-2.68,2.13-4.02,4.87-4.02,8.2,0,3.82,1.06,6.56,3.18,8.22,1.89,1.5,4.79,2.24,8.72,2.21,3.19-.01,5.94-1.46,8.26-4.35,2.06-2.55,3.09-5.17,3.09-7.85,0-2.86-.67-5.12-2.01-6.79-1.5-1.88-3.7-2.82-6.6-2.83ZM87.05,10.4c-1.64,0-3.11.4-4.41,1.19-1.34.84-2.01,1.85-2.01,3.03,0,.82.47,1.51,1.41,2.08.82.49,1.67.74,2.55.74,1.07,0,2.16-.44,3.28-1.33s1.83-1.33,2.13-1.33c.53,0,.99.21,1.38.62s.58.88.58,1.39c0,1.01-.82,2-2.46,2.99-1.64.98-3.28,1.48-4.92,1.51-1.96.04-3.73-.55-5.3-1.79-1.67-1.31-2.51-2.93-2.51-4.87,0-2.26,1.15-4.21,3.44-5.84,2.1-1.5,4.33-2.25,6.68-2.25.81,0,1.51.2,2.1.61.68.46,1.02,1.07,1.02,1.84,0,1.11-.56,1.67-1.69,1.67-.16,0-.38-.04-.65-.12-.27-.08-.48-.12-.63-.12Z"/>
        <path class="cls-1" d="M124.45,15.94c-.17,2.12-.26,4.24-.26,6.36,0,4.8.22,8.43.67,10.88.03.2.04.37.04.5,0,.58-.2,1.05-.61,1.43-.4.38-.87.56-1.41.56-.89,0-1.55-.65-1.97-1.95-1.04.76-2.12,1.34-3.23,1.73-1.12.39-2.28.58-3.49.58-2.98,0-5.46-1-7.42-2.98-2.02-2.03-3.03-4.64-3.03-7.83,0-3.85,1.02-6.93,3.06-9.26,2.04-2.32,4.69-3.48,7.95-3.48,1.67,0,2.96.26,3.87.78l2.03,1.49c.2-6.07.44-10.16.71-12.26.19-1.28.84-1.92,1.97-1.92,1.31,0,1.97.7,1.97,2.1,0,2-.29,6.43-.87,13.28ZM114.85,16.5c-2.42,0-4.24.72-5.45,2.15-1.21,1.43-1.82,3.59-1.82,6.48,0,1.86.66,3.46,1.98,4.8,1.32,1.34,2.87,2.01,4.64,2.01,1.21,0,2.23-.22,3.07-.67.49-.26,1.29-.86,2.4-1.8.22-.19.42-.41.63-.67l-.06-3.74.02-2.51.04-2.55c-.55-1.17-1.28-2.04-2.18-2.63-.91-.58-2-.88-3.27-.88Z"/>
        <path class="cls-1" d="M138.45,36.31c-2.42,0-4.51-.89-6.25-2.68-1.95-1.99-2.97-4.66-3.07-8.02-.09-3.26.74-6.13,2.47-8.61,2.02-2.93,4.83-4.39,8.43-4.39,2.88,0,5.07,1.32,6.55,3.96,1.18,2.13,1.75,4.7,1.71,7.7-.04,3.2-.88,5.93-2.51,8.2-1.85,2.57-4.29,3.85-7.33,3.85ZM139.75,17c-2.12-.01-3.77,1-4.95,3.03-.94,1.63-1.41,3.49-1.41,5.58s.57,3.72,1.71,4.89c.95.97,2.07,1.45,3.35,1.45,1.5,0,2.79-.55,3.87-1.64,1.22-1.21,1.87-2.85,1.95-4.91.2-5.58-1.31-8.38-4.52-8.39Z"/>
        <path class="cls-1" d="M169.95,36.57c-1.24,0-1.94-.68-2.1-2.03l-.61-4.74c-.2-1.69-.3-3.27-.3-4.74,0-.4.03-1.09.08-2.05.05-.97.08-1.65.08-2.05,0-3.11-.58-4.67-1.73-4.67-1.62,0-3.16.96-4.63,2.88-1.33,1.75-2.36,3.95-3.11,6.62-.03.56-.09,1.27-.19,2.12-.09.72-.13,1.42-.13,2.1,0,.43.04,1.08.13,1.95.09.87.13,1.51.13,1.95,0,.65-.2,1.17-.59,1.58-.4.4-.91.61-1.53.61s-1.15-.2-1.54-.61c-.39-.4-.58-.93-.58-1.58,0-.43-.05-1.08-.14-1.95s-.14-1.51-.14-1.95c0-1.49.1-3.54.31-6.17.21-2.63.31-4.69.31-6.17,0-.46-.03-1.15-.08-2.05-.05-.91-.08-1.59-.08-2.05,0-.62.21-1.13.62-1.52.41-.4.92-.59,1.52-.59,1.33,0,2.05.94,2.18,2.81l.06,2.53c2.42-3.23,4.91-4.84,7.46-4.84,2.31,0,3.91,1.02,4.82,3.05.62,1.36.96,3.36,1.02,6.01v2.18l-.02,2.01c0,1.2.16,2.74.46,4.64.31,1.9.46,3.43.46,4.62,0,.63-.21,1.15-.62,1.55s-.93.59-1.55.59Z"/>
        <path class="cls-1" d="M194.9,25.71l-.5,7.27c-.09,2.88-.38,5.24-.89,7.07-.65,2.34-1.69,4.06-3.12,5.17-1.73,1.34-4.23,2.01-7.5,2.01-1.92,0-3.53-.13-4.82-.39-1.82-.36-2.73-1.11-2.73-2.25,0-1.28.63-1.92,1.88-1.92.52,0,1.38.13,2.6.38s2.55.36,4.02.34c2.77-.04,4.68-1.38,5.73-4.02.69-1.76,1.06-4.46,1.1-8.11-.78,1.44-1.71,2.52-2.78,3.24-1.08.72-2.3,1.08-3.69,1.08-2.61,0-4.73-.89-6.37-2.67-1.64-1.78-2.45-4.09-2.45-6.93,0-3.89,1.12-7.03,3.35-9.41,2.31-2.45,5.45-3.68,9.43-3.68,1.34,0,2.47.17,3.37.52.91.35,1.6.86,2.08,1.56,1.54.04,2.31.9,2.31,2.57,0,1.02-.15,2.39-.45,4.11-.33,1.99-.53,3.35-.58,4.07ZM187.95,16.35c-2.74,0-4.86.95-6.36,2.83-1.34,1.7-2.01,3.86-2.01,6.49,0,2.09.4,3.66,1.19,4.71.79,1.05,1.98,1.58,3.57,1.58,1.46,0,2.87-.82,4.24-2.46,1.24-1.51,1.95-3.01,2.12-4.5.3-1.56.63-4,.97-7.33-.58-.45-1.17-.78-1.79-.99-.62-.22-1.26-.33-1.92-.33Z"/>
        <path class="cls-1" d="M210.81,36.03c-3.26,0-5.9-.82-7.92-2.44-2.21-1.8-3.31-4.33-3.31-7.57,0-3.75.91-6.89,2.72-9.43,1.98-2.77,4.61-4.15,7.92-4.15,2.39,0,4.35.4,5.86,1.21,1.86,1,2.79,2.52,2.79,4.58,0,1.44-.81,2.75-2.44,3.94-.72.52-2.25,1.33-4.58,2.42l-8.26,3.92c.81,1.2,1.81,2.1,3.02,2.7s2.61.91,4.21.91c1,0,2.16-.19,3.5-.56,1.7-.48,2.8-1.1,3.29-1.87s1.02-1.16,1.58-1.16c.5,0,.96.19,1.35.57.4.38.59.83.59,1.33,0,1.6-1.29,2.98-3.87,4.13-2.21.98-4.35,1.47-6.44,1.47ZM210.22,16.33c-1.76,0-3.22.68-4.39,2.04s-2.04,3.41-2.62,6.15l6.64-3.16c2.61-1.27,4.47-2.37,5.58-3.31-1.24-1.15-2.98-1.73-5.21-1.73Z"/>
        <path class="cls-1" d="M241.73,19.05c-.1,1.8-.82,2.7-2.16,2.7-1.24,0-1.86-.71-1.86-2.14,0-.27-.02-.78-.06-1.51l-.07-1.82c-2.28.27-4.1.92-5.47,1.92-1.28.94-2.35,2.35-3.2,4.24l.04,11.85c0,1.46-.71,2.18-2.14,2.18-1.27,0-1.9-.73-1.9-2.18v-15.18c0-.48.02-1.19.05-2.14.04-.95.05-1.67.05-2.14,0-1.46.63-2.18,1.9-2.18,1.41,0,2.13,1.2,2.14,3.59,2.77-2.67,5.84-4,9.21-4,1.17,0,2.04.44,2.62,1.32.58.88.86,2.21.86,3.98,0,.75,0,1.25-.02,1.51Z"/>
        <path class="cls-1" d="M278.58,34.15c-1.63.76-4.19,1.45-7.68,2.05-3.21.56-5.84.84-7.87.84-1.46,0-2.5-.22-3.14-.67-.87-.61-1.3-1.72-1.3-3.33l.43-7.16c.37-6.6.56-13.93.56-21.97,0-.62.21-1.15.62-1.58.41-.43.92-.65,1.52-.65s1.14.22,1.55.65c.41.43.62.96.62,1.58,0,8.15-.2,15.56-.58,22.23l-.28,3.29c-.12,1.2-.16,2.26-.13,3.18,3.76.04,8.52-.84,14.27-2.66.25-.07.48-.11.69-.11.62,0,1.14.25,1.56.74.36.45.54.96.54,1.54,0,.92-.46,1.6-1.38,2.03Z"/>
        <path class="cls-1" d="M303.22,34.15c-1.63.76-4.19,1.45-7.68,2.05-3.21.56-5.84.84-7.87.84-1.46,0-2.5-.22-3.14-.67-.87-.61-1.3-1.72-1.3-3.33l.43-7.16c.37-6.6.56-13.93.56-21.97,0-.62.21-1.15.62-1.58.41-.43.92-.65,1.52-.65s1.14.22,1.55.65c.41.43.62.96.62,1.58,0,8.15-.2,15.56-.58,22.23l-.28,3.29c-.12,1.2-.16,2.26-.13,3.18,3.76.04,8.52-.84,14.27-2.66.25-.07.48-.11.69-.11.62,0,1.14.25,1.56.74.36.45.54.96.54,1.54,0,.92-.46,1.6-1.38,2.03Z"/>
        <path class="cls-1" d="M328.76,10.77c-.92,0-1.62-.54-2.08-1.62-.4-.92-.78-1.49-1.12-1.69-.3-.16-1.05-.24-2.25-.24-2.09,0-4.41,1.6-6.96,4.8-3.46,4.3-5.19,8.37-5.19,12.22,0,1.86.6,3.46,1.8,4.8,1.22,1.38,2.7,2.08,4.43,2.08,1.48,0,2.98-.38,4.48-1.15.84-.43,2.12-1.28,3.85-2.55.82-.61,1.44-.91,1.86-.91.62,0,1.14.23,1.56.7s.63.99.63,1.57c0,.65-.27,1.22-.82,1.71-3.81,3.37-7.66,5.06-11.55,5.06-2.99,0-5.51-1.15-7.57-3.44-1.99-2.22-2.98-4.84-2.98-7.87,0-4.89,2.05-9.9,6.14-15.03,3.42-4.28,6.86-6.42,10.34-6.42.71,0,1.34.03,1.9.1.56.07,1.06.17,1.49.31.5-.74,1.16-1.1,1.97-1.1,1,0,1.62.66,1.88,1.97.23,1.17.35,2.6.35,4.3,0,.59-.16,1.11-.48,1.56-.39.56-.94.84-1.67.84Z"/>
        <path class="cls-1" d="M336.93,37.05c-.75,0-1.38-.26-1.9-.78s-.78-1.15-.78-1.9.26-1.37.78-1.89c.52-.53,1.15-.79,1.9-.79s1.37.26,1.89.79.79,1.16.79,1.89-.26,1.38-.79,1.9c-.53.52-1.16.78-1.89.78Z"/>
        <path class="cls-1" d="M339.21.61c.52,0,1.3.05,2.34.15s1.82.15,2.36.15l7.03-.13,1.69-.11c.69-.04,1.25-.06,1.69-.06,1.14,0,1.71.54,1.71,1.62,0,.98-.5,1.51-1.51,1.6-1.31.12-3.55.21-6.73.28-.06.89-.04,2.1.07,3.61.14,1.79.22,3,.22,3.63,0,.45.1,1.11.29,1.98s.29,1.47.29,1.78c0,.45-.17.82-.51,1.11-.34.29-.73.44-1.18.44-.98,0-1.57-.52-1.77-1.56l-.22-4.07-.3-3.53c-.13-1.36-.17-2.49-.13-3.4-.62,0-1.51-.05-2.68-.15s-2.05-.15-2.64-.15c-1.08,0-1.62-.54-1.62-1.62s.54-1.6,1.62-1.6ZM373.66,15.14c0,.43-.17.81-.52,1.12s-.74.48-1.17.48c-1.04,0-1.97-1.46-2.79-4.39l-1.41-5.88c-1.05,2.9-1.78,4.79-2.18,5.67-1.28,2.81-2.42,4.22-3.4,4.22-.68,0-1.16-.48-1.45-1.44s-.57-2.35-.84-4.19c-.3-1.97-.56-3.38-.78-4.22-1.86,6.47-3.54,9.71-5.04,9.71-.43,0-.82-.17-1.16-.5-.34-.33-.51-.71-.51-1.15,0-.32.13-.66.39-1.04,1.01-1.41,1.87-3.34,2.57-5.8l1.82-6.08c.29-.75.79-1.12,1.49-1.12,1.38,0,2.44,1.4,3.16,4.2l1.1,5.88c.25-.42.66-1.6,1.23-3.55.63-2.13,1.16-3.66,1.58-4.56.69-1.51,1.39-2.27,2.1-2.27.79,0,1.3.44,1.54,1.32l1.45,5,.99,3.94c.39,1.33.91,2.59,1.56,3.78.17.32.26.61.26.87Z"/>
      </g>
      <g>
        <path class="cls-1" d="M222.7,53.85c-.11,1.37-.17,2.74-.17,4.12,0,3.11.14,5.45.43,7.04.02.13.03.24.03.32,0,.37-.13.68-.39.92-.26.24-.56.36-.91.36-.58,0-1-.42-1.27-1.26-.67.49-1.37.87-2.09,1.12-.72.25-1.48.38-2.26.38-1.93,0-3.53-.64-4.8-1.93-1.31-1.32-1.96-3-1.96-5.07,0-2.49.66-4.49,1.98-5.99,1.32-1.5,3.03-2.25,5.14-2.25,1.08,0,1.92.17,2.5.5l1.32.97c.13-3.93.29-6.57.46-7.94.12-.83.55-1.25,1.27-1.25.85,0,1.27.45,1.27,1.36,0,1.3-.19,4.16-.56,8.59ZM216.49,54.21c-1.57,0-2.74.46-3.53,1.39-.78.93-1.18,2.33-1.18,4.19,0,1.2.43,2.24,1.28,3.11.85.87,1.85,1.3,3,1.3.78,0,1.45-.14,1.99-.43.32-.17.83-.55,1.55-1.16.14-.12.28-.27.41-.43l-.04-2.42v-1.62s.04-1.65.04-1.65c-.36-.76-.83-1.32-1.41-1.7s-1.29-.57-2.11-.57Z"/>
        <path class="cls-1" d="M231.9,67.03c-1.57,0-2.92-.58-4.04-1.74-1.26-1.29-1.92-3.02-1.99-5.19-.06-2.11.48-3.96,1.6-5.57,1.31-1.89,3.13-2.84,5.46-2.84,1.87,0,3.28.85,4.24,2.56.76,1.38,1.13,3.04,1.11,4.98-.03,2.07-.57,3.84-1.62,5.3-1.2,1.66-2.78,2.49-4.75,2.49ZM232.74,54.54c-1.37,0-2.44.64-3.21,1.96-.61,1.05-.91,2.26-.91,3.61s.37,2.41,1.11,3.16c.62.62,1.34.94,2.17.94.97,0,1.81-.35,2.51-1.06.79-.78,1.21-1.84,1.26-3.18.13-3.61-.84-5.42-2.92-5.43Z"/>
        <path class="cls-1" d="M252.42,67.2c-.8,0-1.25-.44-1.36-1.32l-.39-3.06c-.13-1.09-.2-2.11-.2-3.07,0-.26.02-.7.05-1.33.03-.62.05-1.07.05-1.33,0-2.02-.37-3.02-1.12-3.02-1.04,0-2.04.62-3,1.86-.86,1.13-1.53,2.56-2.02,4.28-.02.36-.06.82-.13,1.37-.06.47-.08.92-.08,1.36,0,.28.03.7.08,1.26.06.56.08.98.08,1.26,0,.42-.13.76-.38,1.02-.26.26-.58.39-.99.39s-.74-.13-.99-.39c-.25-.26-.38-.6-.38-1.02,0-.28-.03-.7-.09-1.26-.06-.56-.09-.98-.09-1.26,0-.96.07-2.29.2-4,.13-1.7.2-3.03.2-4,0-.3-.02-.74-.05-1.33-.03-.59-.05-1.03-.05-1.33,0-.4.13-.73.4-.99s.59-.38.99-.38c.86,0,1.33.61,1.41,1.82l.04,1.64c1.57-2.09,3.18-3.13,4.83-3.13,1.49,0,2.53.66,3.12,1.97.4.88.62,2.17.66,3.89v2.72c-.01.77.09,1.78.29,3s.3,2.22.3,2.99c0,.41-.13.74-.4,1s-.6.38-1,.38Z"/>
        <path class="cls-1" d="M256.44,50.9c-.72,0-1.09-.43-1.12-1.29,0-.34.1-1.01.32-2.02l.53-2.45c.13-.74.49-1.11,1.06-1.11.34,0,.61.13.82.38s.31.55.31.9c.02.78-.23,2.2-.74,4.25-.22.89-.62,1.33-1.19,1.33Z"/>
        <path class="cls-1" d="M270.68,54.28c-.2,0-.43,0-.69-.03-.27-.02-.5-.03-.69-.03-.21,0-.85.07-1.9.21l.27,8.27v.62s.03.71.03.71c.04,2.04-.45,3.07-1.47,3.07-.37,0-.7-.12-.97-.36-.28-.24-.41-.55-.41-.91s.01-.89.04-1.6c.03-.71.04-1.24.04-1.6l-.28-8.17c-.68-.03-1.72-.11-3.11-.24-.83-.11-1.25-.57-1.25-1.39,0-.41.13-.75.38-1.02.25-.27.57-.41.97-.41l2.94.24c0-.48-.02-1.11-.06-1.91s-.06-1.37-.06-1.73c0-.39.13-.72.41-.97.27-.26.6-.38.99-.38.84,0,1.33.69,1.47,2.06.03.34.04.76.04,1.25l-.03.81v.87c1.14-.15,1.81-.22,1.97-.22.97,0,1.6.05,1.9.14.57.19.85.62.85,1.32,0,.41-.13.75-.38,1.01s-.59.4-.99.4Z"/>
        <path class="cls-1" d="M292.83,55.43c-.51,0-.87-.17-1.08-.52-.14-.24-.26-.75-.36-1.51-.7.18-1.78.5-3.23.98-1.5.6-2.26,1.33-2.27,2.21.28.1.56.18.83.22,2.15.38,3.74.91,4.79,1.58,1.52.98,2.28,2.4,2.28,4.25,0,1.52-.66,2.67-1.97,3.44-1.09.63-2.47.95-4.14.95-1.22,0-2.39-.21-3.5-.62-1.44-.52-2.16-1.25-2.16-2.18,0-.37.15-.7.44-.98.29-.28.63-.42,1-.42.29,0,.66.22,1.12.67.22.21.73.39,1.51.53.62.11,1.15.17,1.58.17.78,0,1.47-.09,2.07-.28.87-.27,1.3-.7,1.3-1.29,0-1.27-.89-2.13-2.66-2.58l-1.46-.32c-1.24-.27-2.12-.59-2.65-.95-.76-.52-1.13-1.31-1.13-2.37,0-1.95.92-3.34,2.76-4.17.56-.25,1.46-.55,2.69-.9,1.23-.35,2.11-.65,2.65-.89.38-.17.8-.25,1.25-.25.4,0,.73.13.99.39.26.26.38.6.38,1.02,0,.27.06.67.17,1.19.12.52.17.92.17,1.19,0,.42-.13.76-.38,1.02-.26.26-.59.39-.99.39Z"/>
        <path class="cls-1" d="M308.86,58.03c0,.67,0,1.68.01,3.02,0,1.34.01,2.35.01,3.02,0,.21.02.52.05.94.03.42.05.73.05.94,0,.4-.13.73-.41.99s-.6.38-.99.38c-.72,0-1.18-.44-1.37-1.33-1.17.61-2.51.91-4.03.91-1.22,0-2.23-.27-3.04-.81-.89-.6-1.41-1.47-1.58-2.62-.36-2.47-.55-4.67-.55-6.61,0-1.28.14-2.73.42-4.37.13-.81.57-1.22,1.33-1.22.4,0,.74.13,1.01.38s.41.58.41.99c0,.43-.07,1.12-.2,2.06-.13.94-.2,1.66-.2,2.16,0,1.56.05,2.89.15,4s.26,2,.46,2.67c.31.17.61.3.91.38.3.09.59.13.88.13,1.25,0,2.57-.2,3.96-.6v-2.84s-.04-2.72-.04-2.72c0-2.01.09-3.76.27-5.25.1-.86.56-1.29,1.36-1.29.4,0,.74.13,1.01.39s.4.59.38.98l-.25,5.29Z"/>
        <path class="cls-1" d="M319.16,66.85c-2.11,0-3.82-.53-5.12-1.58-1.43-1.17-2.14-2.8-2.14-4.9,0-2.43.59-4.46,1.76-6.1,1.28-1.79,2.99-2.69,5.12-2.69,1.55,0,2.81.26,3.79.78,1.2.64,1.8,1.63,1.8,2.97,0,.93-.53,1.78-1.58,2.55-.47.34-1.46.86-2.97,1.57l-5.35,2.53c.52.77,1.17,1.36,1.95,1.75s1.69.59,2.72.59c.64,0,1.4-.12,2.27-.36,1.1-.31,1.81-.71,2.13-1.21.32-.5.66-.75,1.02-.75.33,0,.62.12.88.37.26.25.38.53.38.86,0,1.04-.83,1.93-2.51,2.67-1.43.63-2.82.95-4.17.95ZM318.78,54.1c-1.14,0-2.09.44-2.84,1.32-.76.88-1.32,2.21-1.69,3.98l4.3-2.04c1.69-.82,2.89-1.53,3.61-2.14-.8-.75-1.93-1.12-3.37-1.12Z"/>
      </g>
    </g>
  </g>
</svg>