<?xml version="1.0" encoding="UTF-8"?>
<svg id="Layer_2" data-name="Layer 2" xmlns="http://www.w3.org/2000/svg" viewBox="0 0 944.21 191.63">
  <defs>
    <style>
      .cls-1 {
        fill: #d3ffff;
        stroke-width: 0px;
      }
    </style>
  </defs>
  <g id="Layer_1-2" data-name="Layer 1">
    <g>
      <path class="cls-1" d="M936.61,156.87c-33.07-3.55-62.46-8.7-86.58-15.14v6.86h-34.21c1.13.44,2.28.88,3.46,1.31,27.15,10.01,64.33,17.94,107.92,23.02v1.71H17v-1.71c43.59-5.08,80.77-13.01,107.92-23.02,1.21-.45,2.39-.9,3.56-1.35-8.07-1.34-14.65-4.28-19.62-8.82-.62-.56-1.19-1.14-1.76-1.73-26.22,8.19-60.27,14.66-99.5,18.87l-7.59.81v33.95h944.21v-33.95l-7.59-.81Z"/>
      <path class="cls-1" d="M148.35,119.11c5.45.05,13.34.1,22.5.15,2-3.53,3.17-7.19,3.49-10.95-6.36.02-12.22.05-17.22.08-.94,3.41-3.95,7.05-8.77,10.72Z"/>
      <path class="cls-1" d="M257.64,38.85c99.02-24.39,248.34-28.67,380.41-10.91,41.39,5.57,75.84,13.77,99.64,23.72,20.08,8.4,32.07,18.08,32.07,25.9v1.11h.15c6.27,0,11.86.49,16.85,1.48v-2.59c0-15.79-14.3-29.78-42.51-41.58-25.15-10.52-61.09-19.12-103.93-24.88C571.05,1.77,497.02-1.77,426.25.83c-65.62,2.41-125.33,9.85-172.67,21.51-41.17,10.16-89.77,27.94-95.55,56.01,5.23,0,11.32.01,17.89.02,5.78-11.53,29.37-26.6,81.73-39.52Z"/>
      <path class="cls-1" d="M140.48,141.39c2.33,0,124.75-.13,126.87-.39,1.45-.18,2.86-.42,4.21-.73,3.33-.75,6.01-1.68,8.04-2.78,2.03-1.11,3.59-2.1,4.71-2.98,1.11-.88,1.93-1.68,2.45-2.39v8.01h21.76v-72.63h-21.96v27.14c-5.15-4.49-11.94-7.16-20.37-8-1.95-.19-124.19-.29-126.31-.29h-1.57c-11.11,0-19.28,2.44-24.51,7.32-5.23,4.88-7.84,11.16-7.84,18.84v1.86c0,7.94,2.76,14.43,8.28,19.47,5.52,5.04,13.84,7.56,24.95,7.56h1.28ZM139.78,100.58c1.8-.32,124.03-.48,126.3-.48h.49c6.14,0,11.01,1.33,14.61,4,3.59,2.67,5.39,5.83,5.39,9.47v.39h0c0,3.64-1.77,6.81-5.29,9.52-3.53,2.7-8.36,4.05-14.51,4.05h-.49c-2.28,0-124.54-.2-126.38-.59-2.96-.64-5.35-1.79-7.16-3.46-2.94-2.7-4.41-5.88-4.41-9.52v-.39c0-3.91,1.34-7.13,4.02-9.67,1.72-1.63,4.21-2.74,7.44-3.32Z"/>
      <path class="cls-1" d="M365.16,141.34c3.37,0,6.53-.14,9.48-.42,20.74-1.95,31.11-10.77,31.11-26.47v-1.74c0-17.54-13.53-26.3-40.59-26.3h-7.49c-6.33,0-11.93.53-16.82,1.6-4.88,1.06-8.8,2.45-11.75,4.16s-5.36,3.76-7.22,6.14c-1.86,2.39-3.15,4.74-3.85,7.06-.7,2.32-1.05,4.77-1.05,7.35v1.74c0,2.58.35,5.04,1.05,7.4.7,2.35,2,4.75,3.9,7.2,1.9,2.45,4.32,4.54,7.27,6.29,2.95,1.74,6.87,3.17,11.76,4.3,4.37,1.01,9.32,1.56,14.84,1.67.65.01,1.31.02,1.98.02h7.38ZM341.02,113.88v-.48c0-3.8,1.56-6.95,4.69-9.43s8.38-3.72,15.76-3.72h.11c7.24,0,12.44,1.26,15.6,3.77,3.16,2.51,4.74,5.64,4.74,9.38v.48c0,3.68-1.58,6.83-4.74,9.48s-8.4,3.96-15.71,3.96-12.54-1.32-15.71-3.96c-3.16-2.64-4.75-5.8-4.75-9.48Z"/>
      <path class="cls-1" d="M436.2,115.75c0-4.29,1.47-7.74,4.41-10.35,2.94-2.6,6.86-3.9,11.76-3.9,1.97,0,132.33.2,133.89.6,2.16.55,3.93,1.49,5.3,2.82,2.35,2.28,3.53,5.5,3.53,9.66v25.97h22.06v-33.19c0-5.66-2.14-10.49-6.42-14.49-4.28-4-10.7-6-19.26-6h-.69c-1.49,0-2.94.07-4.35.2-1.98.19-132.48.5-134.32.94-6.22,1.51-11.59,4.51-16.1,9.01v-8.98h-21.67v52.52h21.86v-24.79Z"/>
      <path class="cls-1" d="M690.49,96.48c-6.23-5.75-15.81-8.64-28.75-8.64h-2.16c-11.42,0-19.81,2.42-25.14,7.22-5.35,4.83-8.01,10.89-8.01,18.23v2.04c0,7.67,2.95,13.95,8.87,18.83,5.92,4.9,14.98,7.34,27.16,7.34h1.24c11.7,0,20.69-2.75,26.92-8.24,0,9.73-5.66,14.97-16.96,15.68h-309.85v14.87h310.87c6.45,0,12.11-.73,17-2.2,4.9-1.47,8.68-3.24,11.34-5.4,2.66-2.13,4.85-4.64,6.52-7.53,1.69-2.89,2.76-5.47,3.24-7.79.48-2.3.74-4.62.74-6.91v-44.8h-23.02v7.32ZM690.08,114.92c0,3.46-1.78,6.42-5.35,8.9-3.54,2.46-8.73,3.72-15.5,3.72h-.62c-6.49,0-11.27-1.25-14.32-3.72-3.04-2.49-4.57-5.49-4.57-9.02v-.5c0-3.53,1.45-6.46,4.35-8.76,2.92-2.3,7.75-3.46,14.53-3.46h.62c6.78,0,11.96,1.18,15.5,3.55,3.57,2.39,5.35,5.33,5.35,8.86v.43Z"/>
      <path class="cls-1" d="M763.48,86.67c-7.38,0-13.72.73-19.03,2.18-5.31,1.45-9.38,3.45-12.23,6-2.85,2.55-4.9,5.3-6.17,8.27-1.26,2.97-1.9,6.22-1.9,9.77v2.13c0,3.61.69,6.93,2.06,9.96,1.37,3.03,3.53,5.83,6.48,8.41,2.95,2.58,7.1,4.59,12.44,6.04,5.34,1.45,11.67,2.18,18.98,2.18h6.01c6.47,0,12.14-.47,17.03-1.4,4.88-.94,8.66-2.1,11.33-3.48s4.85-3.01,6.54-4.88c1.69-1.87,2.78-3.59,3.27-5.17.49-1.58.74-3.17.74-4.79h0v-.1h-23.19c-.07.39-.24.79-.53,1.21-.28.42-.83.97-1.63,1.64-.81.68-1.84,1.29-3.11,1.84-1.26.55-3.04,1.01-5.32,1.4-2.28.39-4.9.58-7.85.58h-.11c-11.81,0-18.49-3.38-20.03-10.15h62.1v-3.58c0-18.7-13.14-28.04-39.43-28.04h-6.43ZM785.62,107.55h-37.95c1.9-5.87,8.19-8.8,18.87-8.8h.11c10.96,0,17.29,2.93,18.98,8.8Z"/>
      <path class="cls-1" d="M819.86,140.59h22.17v-27.52c0-3.63,1.03-6.68,3.08-9.16,2.06-2.47,6.11-4.83,8.81-5.15,2.7-.32,34.06-.27,34.06-.27v-12.35h-24.47c-4.04,0-7.74.73-11.09,2.18-3.35,1.45-5.72,2.87-7.11,4.26-1.39,1.38-2.55,2.77-3.48,4.16v-9.4h-21.97v53.26Z"/>
    </g>
  </g>
</svg>