<?xml version="1.0" encoding="UTF-8"?>
<svg id="Layer_2" data-name="Layer 2" xmlns="http://www.w3.org/2000/svg" viewBox="0 0 155.57 152.24">
  <defs>
    <style>
      .cls-1 {
        fill: none;
      }

      .cls-1, .cls-2 {
        stroke-width: 0px;
      }

      .cls-2 {
        fill: #ed4b79;
      }
    </style>
  </defs>
  <g id="Layer_1-2" data-name="Layer 1">
    <g>
      <path class="cls-1" d="M138.58,64.7h-.04c-.59,0-3.48.7-4.49,13.98h9.07c-.73-10.26-2.78-13.98-4.54-13.98Z"/>
      <path class="cls-1" d="M56.7,67.75c-2.01,0-3.13,3.78-3.62,6.03-1.06,4.91-1.6,11.25-1.6,18.84v.99c0,7.34.55,13.72,1.62,18.96.85,4.13,2.15,6.5,3.56,6.5s2.71-2.37,3.56-6.5c1.08-5.24,1.62-11.62,1.62-18.96v-.99c0-7.46-.54-13.77-1.62-18.75-.4-1.84-1.54-6.13-3.52-6.13Z"/>
      <path class="cls-2" d="M155.57,95.31c0-40.46-5.03-59.3-15.84-59.3h-2.26c-3.31,0-6.13,1.81-8.38,5.38-1.99,3.16-3.52,7.51-4.56,12.94-1.01,5.26-1.75,11.02-2.2,17.13,0,.09-.01.18-.02.27-.32-7.6-1.03-14.42-2.14-20.35-1.12-5.96-3.25-13.88-8.85-13.88h-.3c-3.99,0-7.06,3.91-9.59,12.45-1.8-8.54-4.5-12.45-8.39-12.45h-.26c-2.95,0-5.38,2.38-7.48,7.5v-5.12h-12.18v25.64c-2.04-20.34-6.99-30-15.17-30h-2.63c-2.85,0-5.37,1.35-7.47,4.02-1.87,2.37-3.37,5.45-4.47,9.17-1.06,3.58-1.94,7.9-2.6,12.85-.42,3.11-.74,6.21-1,9.29V0h-12.63v53.59h-14.52V0H0v151.12h12.63v-57.94h14.52v57.94h12.63v-35.75c.26,3.14.59,6.33,1.02,9.53.68,5.08,1.56,9.5,2.62,13.14,1.1,3.77,2.59,6.94,4.44,9.43,2.1,2.83,4.63,4.27,7.51,4.27h2.59c8.18,0,13.13-9.87,15.17-30.64v29.07h12.25v-52.19c0-8.27.5-15.12,1.5-20.37.86-4.56,1.8-5.96,2.16-6.36.71.84,2.59,4.91,2.59,24.36v54.56h12.33v-52.19c0-8.27.5-15.12,1.5-20.37.86-4.53,1.78-5.94,2.15-6.35.71.87,2.56,5,2.56,24.35v54.56h12.33v-32.46c.49,5.75,1.22,11.19,2.19,16.13,1.08,5.49,2.64,9.87,4.64,13.03,2.26,3.57,5.07,5.38,8.35,5.38h2.11c2.85,0,5.36-1.19,7.46-3.53,1.89-2.11,3.37-4.74,4.39-7.82.97-2.92,1.77-6.39,2.37-10.3.6-3.87.99-7.5,1.17-10.77.17-3.24.26-6.57.26-9.89v-2.2h-12.08l-.06,1.94c-.02.73-.08,1.51-.17,2.3-.09.8-.28,1.87-.54,3.19-.26,1.26-.59,2.41-.99,3.42-.34.87-.81,1.58-1.41,2.18-.43.42-.85.61-1.39.61-.69,0-4.05-.83-4.94-16.75h21.71v-9.31ZM61.84,92.63v.99c0,7.34-.55,13.72-1.62,18.96-.85,4.13-2.15,6.5-3.56,6.5s-2.71-2.37-3.56-6.5c-1.08-5.25-1.62-11.62-1.62-18.96v-.99c0-7.59.54-13.93,1.6-18.84.49-2.25,1.6-6.03,3.62-6.03s3.12,4.29,3.52,6.13c1.08,4.97,1.62,11.28,1.62,18.75ZM134.05,78.68c1.01-13.28,3.9-13.98,4.49-13.98h.04c1.76,0,3.81,3.72,4.54,13.98h-9.07Z"/>
    </g>
  </g>
</svg>