<?xml version="1.0" encoding="UTF-8"?>
<svg id="Layer_2" data-name="Layer 2" xmlns="http://www.w3.org/2000/svg" viewBox="0 0 242.45 195.93">
  <defs>
    <style>
      .cls-1 {
        fill: #662d91;
        stroke-width: 0px;
      }
    </style>
  </defs>
  <g id="Layer_1-2" data-name="Layer 1">
    <g>
      <path class="cls-1" d="M8.63,147.12H0V0h8.63v147.12Z"/>
      <path class="cls-1" d="M20.87,39.86v18.18c2.57-13.7,5.86-20.55,9.88-20.55h.26c3.23,0,5.66,4.05,7.27,12.15,1.62,8.1,2.42,17.88,2.42,29.34v67.18h-8.33v-52.56c0-8.43-.44-14.95-1.33-19.56-.89-4.61-2.22-6.92-4-6.92s-3.33,2.63-4.44,7.9c-1.11,5.27-1.67,12.25-1.67,20.94v50.19h-8.25V39.86h8.18Z"/>
      <path class="cls-1" d="M41.46,40.45h8.88l6.4,72.72,6.22-72.72h8.29l-9.73,106.31h-9.92l-10.14-106.31Z"/>
      <path class="cls-1" d="M101.49,117.71c-.17,3.23-.56,6.75-1.15,10.57-.59,3.82-1.36,7.15-2.29,9.98-.94,2.83-2.26,5.2-3.98,7.11-1.71,1.91-3.71,2.87-5.98,2.87h-2.11c-2.57,0-4.79-1.48-6.66-4.45-1.88-2.96-3.33-7.08-4.37-12.35-1.04-5.27-1.79-11-2.28-17.19-.48-6.19-.72-12.98-.72-20.35v-4.35c0-7.25.22-13.9.67-19.96s1.17-11.69,2.17-16.9c1-5.2,2.43-9.29,4.29-12.25,1.86-2.96,4.09-4.45,6.68-4.45h2.26c9.23,0,13.84,19.1,13.84,57.3v7.31h-21.8c.54,13.83,2.89,20.75,7.03,20.75h.04c1.04,0,1.96-.4,2.76-1.18.8-.79,1.43-1.75,1.87-2.87.44-1.12.81-2.37,1.09-3.76.28-1.38.47-2.5.57-3.36.1-.86.16-1.68.19-2.47h8.14v.2c0,3.29-.09,6.55-.26,9.78ZM86.83,60.7c-3.75,0-5.96,5.99-6.63,17.98h13.33c-.59-11.99-2.81-17.98-6.66-17.98h-.04Z"/>
      <path class="cls-1" d="M113.34,39.86v18.18c2.57-13.7,5.86-20.55,9.88-20.55h.26c3.23,0,5.66,4.05,7.27,12.15,1.62,8.1,2.42,17.88,2.42,29.34v67.18h-8.33v-52.56c0-8.43-.44-14.95-1.33-19.56-.89-4.61-2.22-6.92-4-6.92s-3.33,2.63-4.44,7.9c-1.11,5.27-1.67,12.25-1.67,20.94v50.19h-8.25V39.86h8.18Z"/>
      <path class="cls-1" d="M144.62,146.16c-3.28,0-4.92-10.08-4.92-30.23v-46.83h-3.89v-29.24h3.89V8.83h8.14v31.02h3.92v29.24h-3.92v38.53c0,3.16.11,5.5.33,7.01.22,1.52.67,2.27,1.33,2.27h2.26v29.24h-7.14Z"/>
      <path class="cls-1" d="M168.29,147.73c-2.22,0-4.19-1.15-5.9-3.46-1.71-2.3-3.09-5.24-4.13-8.79-1.04-3.56-1.89-7.84-2.55-12.84s-1.12-9.91-1.37-14.72c-.25-4.81-.37-9.85-.37-15.11v-3.56c0-5.27.12-10.28.37-15.02.25-4.74.7-9.55,1.35-14.42.65-4.87,1.5-9.06,2.54-12.55,1.04-3.49,2.41-6.32,4.13-8.5s3.68-3.26,5.9-3.26h2.63c9.5,0,14.25,17.92,14.25,53.75v3.56c0,36.62-4.75,54.93-14.25,54.93h-2.59ZM175.1,110.98c1.11-5.4,1.67-11.86,1.67-19.36v-.99c0-7.64-.55-14.03-1.67-19.17-1.11-5.14-2.94-7.71-5.48-7.71h-.04c-2.59,0-4.44,2.54-5.53,7.61-1.1,5.07-1.65,11.49-1.65,19.26v.99c0,7.51.56,13.96,1.67,19.36,1.11,5.4,2.95,8.1,5.51,8.1s4.4-2.7,5.52-8.1Z"/>
      <path class="cls-1" d="M211.96,34.94v25.23s-11.01-.11-11.96.54c-.95.65-2.37,5.48-3.09,10.53-.72,5.06-1.08,11.3-1.08,18.71v56.24h-7.78V37.37h7.71v19.22c.33-2.83.73-5.66,1.22-8.49.49-2.83,1.32-5.73,2.5-8.7,1.17-2.97,2.47-4.45,3.89-4.45h8.59Z"/>
      <path class="cls-1" d="M242.45,43.45l-10.22,120.55c-.97,11.2-1.98,19.32-3.04,24.37-1.06,5.04-2.44,7.56-4.13,7.56h-11.78v-33.61h9.28c.63,0,.94-1.18.94-3.56,0-1.26-.3-5.25-.91-11.97l-9.31-103.33h8.7l6.27,76.45,6.09-76.45h8.12Z"/>
    </g>
  </g>
</svg>