<?xml version="1.0" encoding="UTF-8"?>
<svg id="Layer_2" data-name="Layer 2" xmlns="http://www.w3.org/2000/svg" viewBox="0 0 246.62 199.93">
  <defs>
    <style>
      .cls-1 {
        fill: none;
      }

      .cls-1, .cls-2 {
        stroke-width: 0px;
      }

      .cls-2 {
        fill: #ed4b79;
      }
    </style>
  </defs>
  <g id="Layer_1-2" data-name="Layer 1">
    <g>
      <path class="cls-1" d="M84.15,104.62c.89,15.91,4.25,16.75,4.94,16.75.54,0,.96-.19,1.39-.61.61-.6,1.07-1.31,1.41-2.18.4-1.01.73-2.16.99-3.42.27-1.32.45-2.39.54-3.19.09-.8.15-1.57.17-2.3l.06-1.94h11.5v-3.11h-21.01Z"/>
      <path class="cls-1" d="M171.62,67.75c-2.01,0-3.13,3.78-3.62,6.03-1.06,4.91-1.6,11.25-1.6,18.84v.99c0,7.34.55,13.72,1.62,18.96.85,4.13,2.15,6.5,3.56,6.5s2.71-2.37,3.56-6.5c1.08-5.24,1.62-11.62,1.62-18.96v-.99c0-7.46-.54-13.77-1.62-18.75-.4-1.84-1.54-6.13-3.52-6.13Z"/>
      <path class="cls-1" d="M88.87,64.7h-.04c-.59,0-3.48.7-4.49,13.98h9.07c-.73-10.26-2.78-13.98-4.54-13.98Z"/>
      <path class="cls-1" d="M154.34,76.12c.05-1,.12-2.01.19-3.02h-2.69v36.53c0,3.05.1,5.31.31,6.72.04.24.07.42.11.56h2.57c-.21-2.33-.38-4.63-.5-6.9-.25-4.83-.37-9.95-.37-15.22v-3.56c0-5.27.12-10.35.37-15.12Z"/>
      <rect class="cls-2" width="12.63" height="151.12"/>
      <path class="cls-2" d="M234.48,43.45l-4.27,53.62-4.4-53.62h-9.85v-8.51h-10.59c-3.23,0-4.93,3.7-5.61,5.36v-2.94h-11.71v28.13c-2.04-20.34-6.99-30-15.17-30h-2.63c-2.85,0-5.37,1.35-7.47,4.02-1.87,2.37-3.37,5.45-4.47,9.17-1.03,3.47-1.88,7.65-2.54,12.42v-21.25h-3.92V8.83h-12.14v31.02h-3.89v18.02c-.31-2.32-.68-4.54-1.09-6.63-.68-3.4-2.75-13.76-9.23-13.76h-.26c-3.15,0-5.72,2.4-7.88,7.54v-5.17h-12.18v32.53c-1.71-24.7-6.64-36.38-15.15-36.38h-2.26c-3.31,0-6.13,1.81-8.38,5.38-1.99,3.16-3.52,7.51-4.56,12.94-.73,3.79-1.31,7.85-1.75,12.1l2.38-25.97h-12.32l-4.41,51.58-4.54-51.58h-12.92l1.08,11.33c-.03-.18-.06-.36-.1-.54-.68-3.4-2.75-13.76-9.23-13.76h-.26c-3.15,0-5.72,2.4-7.88,7.54v-5.17h-12.18v110.31h12.25v-52.19c0-8.51.55-15.42,1.62-20.53,1.2-5.7,2.48-6.31,2.48-6.32.02,0,1.12.52,2.04,5.29.86,4.47,1.3,10.92,1.3,19.18v54.56h12.33v-69.18c0-1.72-.02-3.4-.06-5.05l7.14,74.82h13.56l7.47-81.56c-.07.75-.14,1.49-.2,2.26-.45,6.08-.67,12.84-.67,20.1v4.35c0,7.4.25,14.3.73,20.51.49,6.24,1.26,12.1,2.31,17.42,1.08,5.49,2.64,9.87,4.64,13.03,2.26,3.57,5.07,5.38,8.35,5.38h2.11c2.85,0,5.36-1.19,7.46-3.53,1.89-2.11,3.37-4.74,4.39-7.82.97-2.92,1.77-6.39,2.37-10.3.36-2.33.64-4.56.85-6.69v26.27h12.25v-52.19c0-8.51.55-15.42,1.62-20.53,1.2-5.7,2.48-6.31,2.48-6.32.02,0,1.12.52,2.04,5.29.86,4.47,1.3,10.92,1.3,19.18v54.56h12.33v-69.18c0-2.71-.05-5.34-.14-7.88h2.66v44.83c0,26.75,2.77,32.23,6.92,32.23h9.14s0-24.95,0-24.95c.67,4.95,1.53,9.27,2.57,12.83,1.1,3.77,2.59,6.94,4.44,9.43,2.1,2.83,4.63,4.27,7.51,4.27h2.59c8.18,0,13.13-9.87,15.17-30.64v29.1h11.78v-58.24c0-7.29.36-13.49,1.06-18.43.65-4.54,1.72-7.96,2.28-9.06,1.6-.23,6.59-.34,10.77-.29h1.01s7.64,84.79,7.64,84.79c.74,8.25.9,10.97.9,11.79,0,.72-.03,1.22-.07,1.57h-10.15s0,37.61,0,37.61h13.78c3.69,0,5.19-4.89,6.09-9.15,1.08-5.1,2.11-13.38,3.08-24.61l10.4-122.72h-12.14ZM84.34,78.68c1.01-13.28,3.9-13.98,4.49-13.98h.04c1.76,0,3.81,3.72,4.54,13.98h-9.07ZM93.66,107.73l-.06,1.94c-.02.73-.08,1.51-.17,2.3-.09.8-.28,1.87-.54,3.19-.26,1.26-.59,2.41-.99,3.42-.34.87-.81,1.58-1.41,2.18-.43.42-.85.61-1.39.61-.69,0-4.05-.83-4.94-16.75h21.01v3.11h-11.5ZM176.76,92.63v.99c0,7.34-.55,13.72-1.62,18.96-.85,4.13-2.15,6.5-3.56,6.5s-2.71-2.37-3.56-6.5c-1.08-5.25-1.62-11.62-1.62-18.96v-.99c0-7.59.54-13.93,1.6-18.84.49-2.25,1.6-6.03,3.62-6.03s3.12,4.29,3.52,6.13c1.08,4.97,1.62,11.28,1.62,18.75ZM154.34,110.02c.12,2.27.28,4.57.5,6.9h-2.57c-.03-.14-.07-.33-.11-.56-.21-1.41-.31-3.68-.31-6.72v-36.53h2.69c-.07,1.01-.14,2.02-.19,3.02-.25,4.77-.37,9.85-.37,15.12v3.56c0,5.27.12,10.38.37,15.22Z"/>
    </g>
  </g>
</svg>