<?xml version="1.0" encoding="UTF-8"?>
<svg id="Layer_2" data-name="Layer 2" xmlns="http://www.w3.org/2000/svg" viewBox="0 0 341.46 156.05">
  <defs>
    <style>
      .cls-1 {
        fill: none;
      }

      .cls-1, .cls-2 {
        stroke-width: 0px;
      }

      .cls-2 {
        fill: #ed4b79;
      }
    </style>
  </defs>
  <g id="Layer_1-2" data-name="Layer 1">
    <g>
      <path class="cls-1" d="M70.86,82.39l8.31-4.5c.13-.3.44-1.32.44-4.09,0-1.66-.07-3-.21-3.99-.1-.74-.43-1.47-1-2.21-.28-.36-.69-.74-1.7-.74l-14.42.14c.81,7.61,1.24,16.75,1.3,27.48.06-.28.12-.56.19-.83,1.36-5.71,3.75-9.5,7.1-11.26Z"/>
      <path class="cls-1" d="M62.15,106.26h-20.27c.89,15.91,4.25,16.75,4.94,16.75.54,0,.96-.19,1.39-.61.61-.6,1.07-1.31,1.41-2.18.4-1.01.73-2.16.99-3.42.27-1.32.45-2.39.54-3.19.09-.8.15-1.57.17-2.3l.06-1.94h10.61c.04-1.07.09-2.11.15-3.11Z"/>
      <path class="cls-1" d="M108.15,70h-.19c-1.22,0-2.39,2.28-3.15,6.09-.98,4.99-1.48,11.44-1.48,19.17v.79c0,7.21.55,13.56,1.62,18.87,1.06,5.21,2.43,6.6,3.07,6.6h.18c.88,0,2.33-1.75,3.54-6.67,1.29-5.29,1.94-11.61,1.94-18.79v-.79c0-7.18-.66-13.46-1.97-18.68-1.22-4.86-2.65-6.59-3.58-6.59Z"/>
      <path class="cls-1" d="M142.16,66.34h-.04c-.59,0-3.48.7-4.49,13.98h9.07c-.73-10.26-2.78-13.98-4.54-13.98Z"/>
      <path class="cls-1" d="M73.3,116.87v.2c0,3.23.26,6.02.76,8.3.3,1.37.64,1.9.78,2.07.48-.18,1.72-1.55,2.9-6.38,1.18-4.83,1.8-10.41,1.87-16.57l-4.13,3.71c-.78.7-1.31,1.57-1.63,2.64-.25.85-.55,2.58-.55,6.04Z"/>
      <path class="cls-1" d="M46.6,66.34h-.04c-.59,0-3.48.7-4.49,13.98h9.07c-.73-10.26-2.78-13.98-4.54-13.98Z"/>
      <path class="cls-1" d="M91.15,116.87c0,1.81.09,2.88.17,3.48h.5c-.29-3.4-.52-7-.67-10.79v7.31Z"/>
      <path class="cls-1" d="M142.38,123c.54,0,.96-.19,1.39-.61.61-.6,1.07-1.31,1.41-2.18.4-1.01.73-2.16.99-3.42.27-1.32.45-2.39.54-3.19.09-.8.15-1.57.17-2.3l.06-1.94h11.5v-3.11h-21.01c.89,15.91,4.25,16.75,4.94,16.75Z"/>
      <path class="cls-1" d="M323.61,70h-.19c-1.22,0-2.39,2.28-3.15,6.09-.98,4.99-1.48,11.44-1.48,19.17v.79c0,7.21.55,13.56,1.62,18.87,1.06,5.21,2.43,6.6,3.07,6.6h.18c.88,0,2.33-1.75,3.54-6.67,1.29-5.29,1.94-11.61,1.94-18.79v-.79c0-7.18-.66-13.46-1.97-18.68-1.22-4.86-2.65-6.59-3.58-6.59Z"/>
      <path class="cls-1" d="M259.95,82.39l8.31-4.5c.13-.3.44-1.32.44-4.09,0-1.66-.07-3-.21-3.99-.1-.74-.43-1.47-1-2.21-.28-.36-.69-.74-1.7-.74l-13.81.13c.73,7.25,1.09,15.84,1.1,25.86,1.39-5.26,3.7-8.79,6.88-10.46Z"/>
      <path class="cls-1" d="M262.39,116.87v.2c0,3.23.26,6.02.76,8.3.3,1.37.64,1.9.78,2.07.48-.18,1.72-1.55,2.9-6.38,1.18-4.83,1.8-10.41,1.87-16.57l-4.13,3.71c-.78.7-1.31,1.57-1.63,2.64-.25.85-.55,2.58-.55,6.04Z"/>
      <path class="cls-1" d="M196.75,95.86c0,7.06.62,13.39,1.84,18.83,1.21,5.4,2.67,6.84,3.34,6.84h.22c.98,0,2.37-1.73,3.35-6.59,1.07-5.31,1.61-11.73,1.61-19.07v-.79c0-7.73-.53-14.21-1.59-19.25-.81-3.89-2.07-6.21-3.37-6.21h-.22c-.87,0-2.28,1.71-3.38,6.55-1.2,5.23-1.8,11.59-1.8,18.92v.79Z"/>
      <path class="cls-1" d="M235.56,69.39c-2.01,0-3.13,3.78-3.62,6.03-1.06,4.91-1.6,11.25-1.6,18.84v.99c0,7.34.55,13.72,1.62,18.96.85,4.13,2.15,6.5,3.56,6.5s2.71-2.37,3.56-6.5c1.08-5.24,1.62-11.62,1.62-18.96v-.99c0-7.46-.54-13.77-1.62-18.75-.4-1.84-1.54-6.13-3.52-6.13Z"/>
      <path class="cls-2" d="M329.16,0v44.39c-2.18-4.19-4.83-6.25-7.99-6.25h-.59c-5.34,0-9.01,5.37-11.21,16.43-.18.92-.36,1.88-.53,2.86v-20.84h-10.59c-3.23,0-4.93,3.7-5.61,5.36v-2.94h-11.71v81.35h-.52c-.08-.61-.17-1.67-.17-3.48v-41.86c0-3.95-.05-7.32-.14-10.02-.1-2.76-.37-5.94-.82-9.43-.46-3.58-1.12-6.56-1.96-8.86-.89-2.43-2.2-4.52-3.9-6.22-1.87-1.87-4.17-2.81-6.81-2.81h-15.64v21.52c-2.46-14.91-7.11-22.05-14.14-22.05h-2.63c-2.85,0-5.37,1.35-7.47,4.02-1.87,2.37-3.37,5.45-4.47,9.17-1.06,3.58-1.94,7.9-2.6,12.85-.35,2.63-.64,5.26-.88,7.87-.49-6.25-1.21-11.79-2.15-16.58-2.17-10.99-5.84-16.33-11.23-16.33h-.67c-3.09,0-5.7,2.23-7.96,6.9V0h-12.25v36.58h-8.72c-3.23,0-4.93,3.7-5.61,5.36v-2.94h-11.71v35.01c-1.71-24.7-6.64-36.38-15.15-36.38h-2.26c-3.31,0-6.13,1.81-8.38,5.38-1.99,3.16-3.52,7.51-4.56,12.94-.96,5-1.67,10.48-2.12,16.26V0h-12.29v44.39c-2.18-4.19-4.83-6.25-7.99-6.25h-.59c-5.34,0-9.01,5.37-11.21,16.43-1.43,7.14-2.35,15.82-2.75,25.9v-5.45c0-3.95-.05-7.32-.14-10.02-.1-2.76-.37-5.94-.82-9.43-.46-3.58-1.12-6.56-1.96-8.86-.89-2.43-2.2-4.52-3.9-6.22-1.87-1.87-4.17-2.81-6.81-2.81h-15.64v25.85c-2.3-17.51-6.93-25.88-14.12-25.88h-2.26c-3.31,0-6.13,1.81-8.38,5.38-1.99,3.16-3.52,7.51-4.56,12.94-1.01,5.26-1.75,11.02-2.2,17.13-.45,6.08-.67,12.84-.67,20.1v4.35c0,5.19.12,10.12.36,14.75H12.65V1.5H0v151.46h31.84v-22.52c.27,1.72.55,3.41.87,5.03,1.08,5.49,2.64,9.87,4.64,13.03,2.26,3.57,5.07,5.38,8.35,5.38h2.11c2.85,0,5.36-1.19,7.46-3.53,1.89-2.11,3.37-4.74,4.39-7.82.97-2.92,1.77-6.39,2.37-10.3.08-.54.15-1.07.23-1.6.36,5.14.95,9.73,1.79,13.68.62,2.9,2.49,11.74,8.56,11.74h.46c3.33,0,5.89-2.24,7.61-6.66.06-.15.11-.29.17-.44.78,3.61,2.02,5.07,3.93,5.07h8.35v-22.52c.28,1.8.59,3.53.92,5.17,2.33,11.38,6.05,16.91,11.38,16.91h.48c2.1,0,4-1.01,5.65-3,.83-1,1.56-2.14,2.2-3.4v3.83h12.22v-32.76c.49,6.16,1.25,11.96,2.29,17.22,1.08,5.49,2.64,9.87,4.64,13.03,2.26,3.57,5.07,5.38,8.35,5.38h2.11c2.85,0,5.36-1.19,7.46-3.53,1.89-2.11,3.37-4.74,4.39-7.82.97-2.92,1.77-6.39,2.37-10.3.36-2.33.64-4.56.85-6.69v26.3h11.78v-58.24c0-7.29.36-13.49,1.06-18.43.65-4.54,1.72-7.96,2.28-9.06,1.6-.23,6.59-.34,10.77-.29h.15v85.2h11.58l.04-1.96c.02-1.11.05-2.17.07-3.18.06.15.13.31.19.46,2.04,4.81,4.76,7.25,8.1,7.25h.63c2.92,0,5.42-1.84,7.42-5.48,1.72-3.13,3.1-7.39,4.1-12.64.94-4.96,1.66-10.62,2.15-16.82.24,2.61.53,5.25.88,7.91.68,5.08,1.56,9.5,2.62,13.14,1.1,3.77,2.59,6.94,4.44,9.43,2.1,2.83,4.63,4.27,7.51,4.27h2.59c7.32,0,12.06-7.9,14.43-24.44.34,5.84.98,10.99,1.91,15.38.62,2.9,2.49,11.74,8.56,11.74h.46c3.33,0,5.89-2.24,7.61-6.66.06-.15.11-.29.17-.44.78,3.61,2.02,5.07,3.93,5.07h8.35v-2.18h10.47v-58.24c0-7.29.36-13.49,1.06-18.43.65-4.54,1.72-7.96,2.28-9.06,1.6-.23,6.59-.33,10.77-.29h.85c-.87,7.89-1.31,17.01-1.31,27.28v3.75c0,16.13,1.07,29.53,3.17,39.82,2.33,11.38,6.05,16.91,11.38,16.91h.48c2.1,0,4-1.01,5.65-3,.83-1,1.56-2.13,2.2-3.4v3.83h12.22V0h-12.29ZM79.6,104.5c-.06,6.17-.69,11.74-1.87,16.57-1.17,4.83-2.42,6.2-2.9,6.38-.14-.17-.48-.7-.78-2.07-.5-2.28-.76-5.07-.76-8.3v-.2c0-3.46.3-5.19.55-6.04.32-1.07.85-1.93,1.63-2.64l4.13-3.71ZM42.07,80.32c1.01-13.28,3.9-13.98,4.49-13.98h.04c1.76,0,3.81,3.72,4.54,13.98h-9.07ZM51.4,109.37l-.06,1.94c-.02.73-.08,1.51-.17,2.3-.09.8-.28,1.87-.54,3.19-.26,1.26-.59,2.41-.99,3.42-.34.87-.81,1.58-1.41,2.18-.43.42-.85.61-1.39.61-.69,0-4.05-.83-4.94-16.75h20.27c-.06,1-.11,2.04-.15,3.11h-10.61ZM63.76,93.65c-.06.27-.12.55-.19.83-.06-10.73-.48-19.87-1.3-27.48l14.42-.14c1.01,0,1.43.37,1.7.74.57.74.89,1.47,1,2.21.14.99.21,2.33.21,3.99,0,2.77-.31,3.79-.44,4.09l-8.31,4.5c-3.35,1.76-5.74,5.55-7.1,11.26ZM91.32,120.35c-.08-.61-.17-1.67-.17-3.48v-7.31c.15,3.79.38,7.39.67,10.79h-.5ZM113.7,95.26v.79c0,7.18-.65,13.5-1.94,18.79-1.2,4.93-2.66,6.67-3.54,6.67h-.18c-.64,0-2.02-1.39-3.07-6.6-1.08-5.31-1.62-11.66-1.62-18.87v-.79c0-7.74.5-14.19,1.48-19.17.75-3.82,1.93-6.09,3.15-6.09h.19c.93,0,2.35,1.73,3.58,6.59,1.31,5.22,1.98,11.5,1.98,18.68ZM137.63,80.32c1.01-13.28,3.9-13.98,4.49-13.98h.04c1.76,0,3.81,3.72,4.54,13.98h-9.07ZM158.46,109.37h-11.5l-.06,1.94c-.02.73-.08,1.51-.17,2.3-.09.8-.28,1.87-.54,3.19-.26,1.26-.59,2.41-.99,3.42-.34.87-.81,1.58-1.41,2.18-.43.42-.85.61-1.39.61-.69,0-4.05-.83-4.94-16.75h21.01v3.11ZM201.93,69.6h.22c1.3,0,2.56,2.32,3.37,6.21,1.05,5.05,1.59,11.52,1.59,19.25v.79c0,7.34-.54,13.76-1.61,19.07-.98,4.86-2.37,6.59-3.35,6.59h-.22c-.67,0-2.13-1.44-3.34-6.84-1.22-5.43-1.84-11.77-1.84-18.83v-.79c0-7.32.61-13.69,1.8-18.92,1.1-4.83,2.51-6.55,3.38-6.55ZM268.69,104.5c-.06,6.17-.69,11.74-1.87,16.57-1.17,4.83-2.42,6.2-2.9,6.38-.14-.17-.48-.7-.78-2.07-.5-2.28-.76-5.07-.76-8.3v-.2c0-3.46.3-5.19.55-6.04.32-1.07.85-1.93,1.63-2.64l4.13-3.71ZM240.71,94.27v.99c0,7.34-.55,13.72-1.62,18.96-.85,4.13-2.15,6.5-3.56,6.5s-2.71-2.37-3.56-6.5c-1.08-5.25-1.62-11.62-1.62-18.96v-.99c0-7.59.54-13.93,1.6-18.84.49-2.25,1.6-6.03,3.62-6.03s3.12,4.29,3.52,6.13c1.08,4.97,1.62,11.28,1.62,18.75ZM253.07,92.85c0-10.02-.36-18.61-1.1-25.86l13.81-.13c1.01,0,1.43.37,1.7.74.57.74.89,1.47,1,2.21.14.99.21,2.33.21,3.99,0,2.77-.31,3.79-.44,4.09l-8.31,4.5c-3.18,1.67-5.49,5.21-6.88,10.46ZM329.16,95.26v.79c0,7.18-.65,13.5-1.94,18.79-1.2,4.93-2.65,6.67-3.54,6.67h-.18c-.64,0-2.02-1.39-3.07-6.6-1.08-5.31-1.62-11.66-1.62-18.87v-.79c0-7.74.5-14.19,1.48-19.17.75-3.82,1.93-6.09,3.15-6.09h.19c.93,0,2.35,1.73,3.58,6.59,1.31,5.22,1.98,11.5,1.98,18.68Z"/>
    </g>
  </g>
</svg>