<?xml version="1.0" encoding="UTF-8"?>
<svg id="Layer_2" data-name="Layer 2" xmlns="http://www.w3.org/2000/svg" viewBox="0 0 337.46 152.05">
  <defs>
    <style>
      .cls-1 {
        fill: #662d91;
        stroke-width: 0px;
      }
    </style>
  </defs>
  <g id="Layer_1-2" data-name="Layer 1">
    <g>
      <path class="cls-1" d="M8.65,1.5v110.79h19.19v36.67H0V1.5h8.65Z"/>
      <path class="cls-1" d="M59.22,119.35c-.17,3.23-.56,6.75-1.15,10.57-.59,3.82-1.36,7.15-2.29,9.98-.94,2.83-2.26,5.2-3.98,7.11-1.71,1.91-3.71,2.87-5.98,2.87h-2.11c-2.57,0-4.79-1.48-6.66-4.45-1.88-2.96-3.33-7.08-4.37-12.35-1.04-5.27-1.79-11-2.28-17.19-.48-6.19-.72-12.98-.72-20.35v-4.35c0-7.25.22-13.9.67-19.96s1.17-11.69,2.17-16.9c1-5.2,2.43-9.29,4.29-12.25,1.86-2.96,4.09-4.45,6.68-4.45h2.26c9.23,0,13.84,19.1,13.84,57.3v7.31h-21.8c.54,13.83,2.89,20.75,7.03,20.75h.04c1.04,0,1.96-.4,2.76-1.18.8-.79,1.43-1.75,1.87-2.87.44-1.12.81-2.37,1.09-3.76.28-1.38.47-2.5.57-3.36.1-.86.16-1.68.19-2.47h8.14v.2c0,3.29-.09,6.55-.26,9.78ZM44.56,62.34c-3.75,0-5.96,5.99-6.63,17.98h13.33c-.59-11.99-2.81-17.98-6.66-17.98h-.04Z"/>
      <path class="cls-1" d="M89.14,120.35v29.66h-6.35c-1.71,0-2.7-5.01-2.98-15.03-.58,4.2-1.58,8.09-2.98,11.68-1.4,3.59-3.32,5.39-5.75,5.39h-.46c-2.97,0-5.17-3.39-6.61-10.16-1.44-6.77-2.16-15.31-2.16-25.6v-1.42c0-10.03.61-17.61,1.84-22.76,1.23-5.15,3.25-8.47,6.08-9.95l8.62-4.68c.79-.54,1.19-2.44,1.19-5.69,0-1.76-.08-3.18-.23-4.27-.15-1.08-.61-2.13-1.38-3.15-.77-1.02-1.87-1.52-3.3-1.52l-12.83.12v-25.32h13.64c2.1,0,3.9.74,5.4,2.23,1.5,1.49,2.64,3.32,3.44,5.49.79,2.17,1.42,4.98,1.86,8.43.44,3.46.71,6.54.81,9.25.09,2.71.14,6.02.14,9.95v41.86c0,3.65.33,5.48.98,5.48h1.02ZM79.61,98.01l-7.47,6.71c-1.05.95-1.79,2.13-2.21,3.56-.42,1.42-.63,3.62-.63,6.6v.2c0,3.38.27,6.3.81,8.73.54,2.44,1.41,3.66,2.63,3.66,2.01,0,3.66-2.65,4.94-7.93s1.93-11.31,1.93-18.08v-3.45Z"/>
      <path class="cls-1" d="M121.99,0v147.01h-8.22v-16.2c-.2,1.45-.51,3.06-.93,4.84-.42,1.78-1.01,3.79-1.78,6.03-.77,2.24-1.78,4.12-3.04,5.63-1.26,1.52-2.63,2.27-4.11,2.27h-.48c-4.2,0-7.33-5.1-9.42-15.31s-3.13-23.35-3.13-39.42v-3.75c0-15.54.99-28.25,2.96-38.13,1.97-9.88,5.06-14.82,9.25-14.82h.59c4.27,0,7.6,5.6,9.99,16.79V0h8.29ZM113.7,93.26c0-7.38-.68-13.77-2.04-19.17s-3.2-8.1-5.51-8.1h-.19c-2.39,0-4.1,2.57-5.11,7.71s-1.52,11.66-1.52,19.56v.79c0,7.38.55,13.8,1.67,19.27,1.11,5.47,2.79,8.2,5.03,8.2h.18c2.32,0,4.15-2.73,5.48-8.2,1.33-5.47,2-11.89,2-19.27v-.79h0Z"/>
      <path class="cls-1" d="M154.78,119.35c-.17,3.23-.56,6.75-1.15,10.57-.59,3.82-1.36,7.15-2.29,9.98-.94,2.83-2.26,5.2-3.98,7.11-1.71,1.91-3.71,2.87-5.98,2.87h-2.11c-2.57,0-4.79-1.48-6.66-4.45-1.88-2.96-3.33-7.08-4.37-12.35-1.04-5.27-1.79-11-2.28-17.19-.48-6.19-.72-12.98-.72-20.35v-4.35c0-7.25.22-13.9.67-19.96s1.17-11.69,2.17-16.9c1-5.2,2.43-9.29,4.29-12.25,1.86-2.96,4.09-4.45,6.68-4.45h2.26c9.23,0,13.84,19.1,13.84,57.3v7.31h-21.8c.54,13.83,2.89,20.75,7.03,20.75h.04c1.04,0,1.96-.4,2.76-1.18.8-.79,1.43-1.75,1.87-2.87.44-1.12.81-2.37,1.09-3.76.28-1.38.47-2.5.57-3.36.1-.86.16-1.68.19-2.47h8.14v.2c0,3.29-.09,6.55-.26,9.78ZM140.12,62.34c-3.75,0-5.96,5.99-6.63,17.98h13.33c-.59-11.99-2.81-17.98-6.66-17.98h-.04Z"/>
      <path class="cls-1" d="M182.37,36.58v25.23s-11.01-.11-11.96.54c-.95.65-2.37,5.48-3.09,10.53-.72,5.06-1.08,11.3-1.08,18.71v56.24h-7.78V39.01h7.71v19.22c.33-2.83.73-5.66,1.22-8.49.49-2.83,1.32-5.73,2.5-8.7,1.17-2.97,2.47-4.45,3.89-4.45h8.59Z"/>
      <path class="cls-1" d="M192.75,0v55.52c2.74-11.59,6.06-17.39,9.96-17.39h.67c4.24,0,7.33,4.91,9.27,14.72,1.94,9.81,2.91,22.69,2.91,38.63v3.75c0,7.38-.24,14.26-.72,20.65-.48,6.39-1.2,12.12-2.17,17.19-.96,5.07-2.26,9.09-3.89,12.05-1.63,2.96-3.52,4.45-5.66,4.45h-.63c-2.47,0-4.55-2.01-6.26-6.03s-2.9-7.87-3.59-11.56c-.2,3.03-.37,8.04-.52,15.02h-7.62V0h8.25ZM192.75,93.86c0,7.25.63,13.67,1.89,19.26,1.26,5.6,3.02,8.4,5.29,8.4h.22c2.44,0,4.21-2.73,5.31-8.2,1.1-5.47,1.65-11.95,1.65-19.46v-.79c0-7.9-.54-14.46-1.63-19.66-1.08-5.2-2.86-7.8-5.33-7.8h-.22c-2.32,0-4.1,2.7-5.33,8.1-1.23,5.4-1.85,11.86-1.85,19.36v.79Z"/>
      <path class="cls-1" d="M232.23,149.37c-2.22,0-4.19-1.15-5.9-3.46-1.71-2.3-3.09-5.24-4.13-8.79-1.04-3.56-1.89-7.84-2.55-12.84s-1.12-9.91-1.37-14.72c-.25-4.81-.37-9.85-.37-15.11v-3.56c0-5.27.12-10.28.37-15.02.25-4.74.7-9.55,1.35-14.42.65-4.87,1.5-9.06,2.54-12.55,1.04-3.49,2.41-6.32,4.13-8.5s3.68-3.26,5.9-3.26h2.63c9.5,0,14.25,17.92,14.25,53.75v3.56c0,36.62-4.75,54.93-14.25,54.93h-2.59ZM239.04,112.62c1.11-5.4,1.67-11.86,1.67-19.36v-.99c0-7.64-.55-14.03-1.67-19.17-1.11-5.14-2.94-7.71-5.48-7.71h-.04c-2.59,0-4.44,2.54-5.53,7.61-1.1,5.07-1.65,11.49-1.65,19.26v.99c0,7.51.56,13.96,1.67,19.36,1.11,5.4,2.95,8.1,5.51,8.1s4.4-2.7,5.52-8.1Z"/>
      <path class="cls-1" d="M278.23,120.35v29.66h-6.35c-1.71,0-2.7-5.01-2.98-15.03-.58,4.2-1.58,8.09-2.98,11.68-1.4,3.59-3.32,5.39-5.75,5.39h-.46c-2.97,0-5.17-3.39-6.61-10.16-1.44-6.77-2.16-15.31-2.16-25.6v-1.42c0-10.03.61-17.61,1.84-22.76,1.23-5.15,3.25-8.47,6.08-9.95l8.62-4.68c.79-.54,1.19-2.44,1.19-5.69,0-1.76-.08-3.18-.23-4.27-.15-1.08-.61-2.13-1.38-3.15-.77-1.02-1.87-1.52-3.3-1.52l-12.83.12v-25.32h13.64c2.1,0,3.9.74,5.4,2.23,1.5,1.49,2.64,3.32,3.44,5.49.79,2.17,1.42,4.98,1.86,8.43.44,3.46.71,6.54.81,9.25.09,2.71.14,6.02.14,9.95v41.86c0,3.65.33,5.48.98,5.48h1.02ZM268.7,98.01l-7.47,6.71c-1.05.95-1.79,2.13-2.21,3.56-.42,1.42-.63,3.62-.63,6.6v.2c0,3.38.27,6.3.81,8.73.54,2.44,1.41,3.66,2.63,3.66,2.01,0,3.66-2.65,4.94-7.93s1.93-11.31,1.93-18.08v-3.45Z"/>
      <path class="cls-1" d="M304.84,36.58v25.23s-11.01-.11-11.96.54c-.95.65-2.37,5.48-3.09,10.53-.72,5.06-1.08,11.3-1.08,18.71v56.24h-7.78V39.01h7.71v19.22c.33-2.83.73-5.66,1.22-8.49.49-2.83,1.32-5.73,2.5-8.7,1.17-2.97,2.47-4.45,3.89-4.45h8.59Z"/>
      <path class="cls-1" d="M337.46,0v147.01h-8.22v-16.2c-.2,1.45-.51,3.06-.92,4.84-.42,1.78-1.01,3.79-1.78,6.03-.77,2.24-1.78,4.12-3.04,5.63-1.26,1.52-2.63,2.27-4.11,2.27h-.48c-4.2,0-7.33-5.1-9.42-15.31s-3.13-23.35-3.13-39.42v-3.75c0-15.54.99-28.25,2.96-38.13,1.97-9.88,5.06-14.82,9.25-14.82h.59c4.27,0,7.6,5.6,9.99,16.79V0h8.29ZM329.16,93.26c0-7.38-.68-13.77-2.04-19.17s-3.2-8.1-5.51-8.1h-.19c-2.39,0-4.1,2.57-5.11,7.71s-1.52,11.66-1.52,19.56v.79c0,7.38.55,13.8,1.67,19.27,1.11,5.47,2.79,8.2,5.03,8.2h.18c2.32,0,4.15-2.73,5.48-8.2,1.33-5.47,2-11.89,2-19.27v-.79h0Z"/>
    </g>
  </g>
</svg>